<svg version="1.0" xmlns="http://www.w3.org/2000/svg" width="898.667" height="162.667" viewBox="0 0 674 122"><path d="M279.6 19.2c-4.8 17.1-9.6 36.1-9.2 36.5 1.9 1.9 3.8-2.3 7.9-17.9 2.6-9.5 5.1-18.8 5.6-20.6.8-2.8.7-3.2-.9-3.2-1.4 0-2.2 1.3-3.4 5.2zM288 31v17h2.5c2.5 0 2.5-.1 2.5-8.3 0-7.8.2-8.5 2.4-9.6 1.3-.7 3.2-1.1 4.2-.9 1.7.3 1.9 1.4 2.2 9.6l.3 9.2h6.1l-.4-9.9c-.2-8-.7-10.3-2.2-12-2.3-2.5-6.7-2.7-10.1-.5l-2.5 1.6v-6.6c0-6.4-.1-6.6-2.5-6.6H288v17zm48-1.1c0 15 .1 16.1 2.1 17.4 2 1.5 5.9 1.2 5.9-.3 0-.5-.7-1.5-1.5-2.4-1.2-1.2-1.5-4.4-1.5-16V14h-5v15.9zm11-.7c0 17.7.6 19.5 6.8 18.9 1.4-.1 1.7-4.1.2-4.1-.5 0-1.1-6-1.2-14.8l-.3-14.7-2.7-.3-2.8-.3v15.3zm125-.8c0 8 .4 15.6.9 16.9 1.5 3.9 7.1 4.4 7.1.6 0-1-.4-1.9-1-1.9s-1-5.7-1-15V14h-6v14.4zm26-8.4c0 5.7-.1 6-1.9 5-3.4-1.8-6.8-1.1-9.9 2-4.5 4.5-5 10.9-1.3 17.8 1.7 3.2 6.8 4.5 10.5 2.7 1.9-1 3.2-1.2 3.4-.5.2.5 1.5 1 2.8 1h2.4V14h-6v6zm-.5 16.1c0 6.1-.1 6.4-2.9 7.4-2.4.8-3.1.6-4.7-1.4-4.3-5.2-.2-15.3 5.3-13.2 2.1.7 2.3 1.5 2.3 7.2zM35.7 17.5c-5.4 1.4-10.7 5.9-13.3 11.3-2.1 4.4-2.1 14 0 18 3.2 6.2 10.7 9.9 17.9 8.8 8.8-1.4 9-4.8.2-3.9-6.4.7-10.7-.8-13.4-4.6-8.5-11.9 2.9-29.4 17.2-26.7 7.9 1.5 12.5 12.8 7.7 18.9-1.4 1.8-3 2.7-4.4 2.5-2.3-.3-2.4-.9-1.1-9.6.6-4.4.5-5.2-.9-5.2-.9 0-1.6.4-1.6.9s-1.3.4-3-.2c-2.5-1-3.4-.8-5.7.9-1.6 1.2-3.5 4-4.3 6.3-1.3 3.7-1.3 4.5 0 6.9 1.7 3 5.7 4 9 2.2 1.6-.9 2.4-.8 3.6.5 5.7 5.7 15.6-4.8 13.8-14.6-2-10.3-10.6-15.3-21.7-12.4zM42 33.4c0 3.6-1.7 7.6-3.6 8.3-2.5 1-4.4-2.2-3.4-5.7 1.2-4.3 1.9-5 4.6-5 1.9 0 2.4.5 2.4 2.4zm82.5-12.3c-.4 1.9-1.5 3.3-2.6 3.6-2.5.7-2.4 3.3.1 4 1.8.5 2 1.4 2 7.8 0 9 1.7 11.7 7.4 11.7 2 0 4-.3 4.3-.6 1.1-1.1-.7-3.6-2.6-3.6-2.8 0-4.1-2.9-4.1-9.4 0-5.6 0-5.6 3-5.6 2.5 0 3-.4 3-2.5s-.5-2.5-3-2.5c-2.7 0-3-.3-3-3 0-4.3-3.6-4.2-4.5.1zm56 0c-.8 3.5-4.5 5.5-7.5 3.9-5.5-3-13 .4-13 5.9 0 3.1 1.7 4.9 7.3 7.4 2.6 1.2 3.7 2.3 3.5 3.5-.4 2.1-4.9 2.8-7.9 1.2-1.7-1-2.3-.9-3 .1-1.3 2.1-1.1 2.7 1.2 3.9 3 1.7 9.6 1.4 12.4-.4 1.8-1.2 2.5-2.5 2.5-5 0-3.7-1.8-5.7-7.2-7.9-6.3-2.6-3.9-7.3 2.4-4.9 2.3.8 3 .8 3.4-.2.4-1.1 1.1-1.1 3-.2 2.2 1 2.4 1.7 2.4 8.2 0 8.9 1.7 11.6 7.4 11.6 2 0 4-.3 4.3-.6 1.1-1.1-.7-3.6-2.6-3.6-2.8 0-4.1-2.9-4.1-9.4 0-5.6 0-5.6 3-5.6 2.5 0 3-.4 3-2.5s-.5-2.5-3-2.5c-2.7 0-3-.3-3-3 0-4.3-3.6-4.2-4.5.1zM62 36v12h6v-8.3c0-8.9.8-10.7 4.7-10.7 3.1 0 4.3 3.3 4.3 12.1 0 6.7.1 6.9 2.5 6.9 2.5 0 2.5 0 2.5-9.4 0-7.9-.3-9.7-2.1-12-2.4-3-6.3-3.4-9.8-1-2.2 1.6-2.4 1.6-3.3 0-.5-.9-1.8-1.6-2.8-1.6-1.9 0-2 .8-2 12zm29.2-10.4c-7 4.9-6.7 17.6.5 21.5 2.9 1.6 8.3 1.5 11.2-.1 3.2-1.6 2-3.6-1.9-3.2-4.9.5-7.5-.5-8.8-3.3L91 38h15v-4.1c0-7.8-8.6-12.7-14.8-8.3zm8.6 3.6c.7.7 1.2 2 1.2 3 0 1.5-.9 1.8-5 1.8-5.4 0-6.1-.9-3-4 2.3-2.3 5-2.6 6.8-.8z"/><path d="M140.4 27.4c-5.5 5.5-4.8 15.1 1.4 19.2 4.6 3 14.9 1.4 13.6-2.1-.5-1.1-1.6-1.3-4.9-.8-3.5.4-4.6.2-6.4-1.6-3.4-3.4-2.6-4.1 5.4-4.1h7.5v-3c0-10.2-9.6-14.6-16.6-7.6zm10 2.2c3.1 3 2 4.4-3.4 4.4s-6.1-.9-3-4c2.4-2.4 4.3-2.5 6.4-.4zm59.6-2.9c-3.2 2.9-4.8 7.7-4.2 12.5.4 3.3 5.2 8.4 8.5 9 4 .8 9-1.4 11.4-5.1 7.5-11.1-6-25.1-15.7-16.4zm10.8 4.1c1.7 2.2 1.5 8.3-.4 11-1.7 2.5-5.6 2.9-7.4.7-.6-.8-1.4-3.2-1.7-5.4-.5-3.3-.1-4.4 2-6.5 2.7-2.7 5.1-2.6 7.5.2zM232 36v12h2.5c2.4 0 2.5-.2 2.5-7.3 0-8.2 1-10.3 5.5-11.5 4.1-1.1 4.9-5.2 1.1-5.2-1.4 0-3.5.9-4.5 1.9-2 2-2 2-2.6 0-.4-1-1.5-1.9-2.6-1.9-1.8 0-1.9.8-1.9 12zm17.5-9.5c-2.9 2.8-3.4 8.5-1 10.5 1.2 1 1.2 1.5-.1 3.5-1.2 1.9-1.3 2.8-.4 4.5.9 1.7.8 2.5-.4 3.9-2.1 2.4-2 4.7.4 7.1 3.2 3.2 12.9 2.8 16.9-.6 3.4-2.8 4.2-7.3 1.6-9.4-.8-.7-4.4-1.5-8-1.8-5.5-.4-6.5-.8-6.5-2.3 0-1.5.8-1.9 4-1.9 5.3 0 9.4-3.7 8.8-8-.3-2.1 0-3 1.4-3.3 1-.3 1.8-1.4 1.8-2.6 0-2-.5-2.1-8-2.1-7.3 0-8.3.3-10.5 2.5zm9.5 2.9c2.8 3.5-1.1 9.3-4.7 7-3.6-2.2-2.3-8.4 1.7-8.4 1 0 2.3.7 3 1.4zm3.5 20.8c1.3 1.2-3 4.8-5.7 4.8-4.2 0-7.5-3.9-5.3-6.2.9-.8 9.9.3 11 1.4zm52.9-22.8c-5.5 5.5-4.8 15.1 1.4 19.2 4.6 3 14.9 1.4 13.6-2.1-.5-1.1-1.6-1.3-4.9-.8-3.5.4-4.6.2-6.4-1.6-3.4-3.4-2.6-4.1 5.4-4.1h7.5v-3c0-10.2-9.6-14.6-16.6-7.6zm10 2.2c3.1 3 2 4.4-3.4 4.4s-6.1-.9-3-4c2.4-2.4 4.3-2.5 6.4-.4zm37.4-4c-5.7 3-7.4 11.2-3.8 17.2 2.2 3.6 7.8 6.5 10.7 5.6 6.8-2.2 9.3-5.6 9.3-12.8 0-3.7-.6-5.1-3.4-8-3.7-4-8-4.7-12.8-2zm10.3 7.2c1.6 4.1-.5 10-3.7 10.8-3.8 1-6.4-2-6.4-7.1 0-8.4 7.3-11.1 10.1-3.7zm21.9-8.4c0 .3.9 3.8 1.9 7.8 1.1 4 2.5 9.2 3.1 11.5 1 4 1.3 4.3 4.4 4.3h3.3l1.9-8.8 1.8-8.7 1.3 4.5c.6 2.5 1.7 6.4 2.3 8.7 1 4 1.3 4.3 4.3 4.3h3.3l2.7-11.3c1.5-6.1 2.7-11.5 2.7-12 0-.4-.9-.7-2-.7-2.4 0-3.5 2.4-5.1 11.5-.7 3.6-1.5 6.2-1.8 5.9-.3-.3-1.5-4.2-2.7-8.7-1.8-7.5-2.2-8.2-4.5-8.2-2.2 0-2.6.8-4.8 9.4l-2.5 9.4-2-9.4c-2-8.9-2.2-9.4-4.8-9.7-1.6-.2-2.8-.1-2.8.2zm38.4 3.2c-2.8 2.9-3.4 4.3-3.4 8.1 0 7.9 4.5 12.8 11.7 12.6 4.9-.1 9.3-4.6 10-10.1 1.1-7.9-3.9-14.2-11.2-14.2-3 0-4.4.7-7.1 3.6zm11.4 3.2c2 2.5 1.5 9.6-.8 11.7-2.9 2.7-6.7 1.3-7.8-2.9-2.4-8.4 3.8-14.7 8.6-8.8zM456 36v12h6v-7.8c0-8.5 1.4-11.2 5.8-11.2 1.7 0 2.2-.6 2.2-2.5 0-2-.5-2.5-2.3-2.5-1.3 0-3.2.9-4.3 2.1l-1.8 2-.8-2c-.4-1.2-1.6-2.1-2.8-2.1-1.9 0-2 .6-2 12zm-347 0c0 1.8.7 2 5.5 2s5.5-.2 5.5-2-.7-2-5.5-2-5.5.2-5.5 2zm83 0c0 1.8.7 2 5.5 2s5.5-.2 5.5-2-.7-2-5.5-2-5.5.2-5.5 2zm190 0c0 1.8.7 2 5.5 2s5.5-.2 5.5-2-.7-2-5.5-2-5.5.2-5.5 2zm-42 57.3v10.3l4.5.2c3.6.1 4.7-.3 6-2 2.1-3.1 1.9-8.1-.4-10.9-1.7-2.2-2.2-2.3-5-1.2l-3.1 1.1v-3.9c0-2.1-.4-3.9-1-3.9s-1 4.1-1 10.3zm9.2.2c1.8 4.1 0 8-3.7 8-2.8 0-3-.3-3.3-3.8-.2-2.1.2-4.5.9-5.3 1.8-2.2 4.8-1.7 6.1 1.1zM356 84c0 .5.9 1 2 1 1.8 0 2 .7 2 7.6 0 9.1 1 11.4 5 11.4 1.7 0 3-.5 3-1 0-.6-1.1-1-2.4-1-3.1 0-3.6-1.5-3.6-11.1V83h-3c-1.6 0-3 .4-3 1zm22 0c0 .5.7 1 1.5 1s1.5-.5 1.5-1c0-.6-.7-1-1.5-1s-1.5.4-1.5 1zm29.6-.3c-.3.3-.6 5.1-.6 10.5 0 7.9.3 9.8 1.5 9.8 1 0 1.5-1.6 1.7-6.3.3-5.9.4-6.2 3.1-6.5l2.7-.3v6.5c0 3.7.4 6.6 1 6.6s1-3 1-6.9c0-6-.3-7-2-7.6-1-.3-2.8-.1-4 .5-1.8 1-2 .8-2-2.4 0-3.4-1.1-5.2-2.4-3.9zm42.4 2.9c0 3.1-.3 3.5-2 2.9-4.3-1.4-8 2.3-8 7.8 0 5.1 5.6 8.7 8.8 5.5.9-.9 1.2-.9 1.2 0 0 .7.5 1.2 1 1.2.6 0 1-4.2 1-10.5s-.4-10.5-1-10.5c-.5 0-1 1.6-1 3.6zm-1.2 5.6c1.7 1.7 1.5 7.3-.3 8.8-3.7 3.1-7.7-2-5.6-7.3 1.1-2.9 3.8-3.6 5.9-1.5zm85.2-5.6c0 3.1-.3 3.5-2 2.9-4.3-1.4-8 2.3-8 7.8 0 5.1 5.6 8.7 8.8 5.5.9-.9 1.2-.9 1.2 0 0 .7.5 1.2 1 1.2.6 0 1-4.2 1-10.5s-.4-10.5-1-10.5c-.5 0-1 1.6-1 3.6zm-1.2 5.6c1.7 1.7 1.5 7.3-.3 8.8-3.7 3.1-7.7-2-5.6-7.3 1.1-2.9 3.8-3.6 5.9-1.5zM23 87.1l-2.5 2.1 2.8-.6L26 88v7c0 6.3-.2 7-1.9 7-1.1 0-2.3.4-2.6 1-.4.6 1.5 1 4.9 1 3.1 0 5.6-.5 5.6-1 0-.6-.9-1-2-1-1.8 0-2-.7-2-8.5 0-9.3-.6-10-5-6.4zm32.6.1c-2.1 3-2.1 11.7 0 14.6 2.2 3.2 7.3 2.7 9.2-.8 1.6-3 1.1-12.2-.7-14.4-2-2.4-6.7-2-8.5.6zm6.8 1c3 4.3 1.4 13.8-2.3 13.8-2.6 0-4.1-2.9-4.1-7.7 0-3.7 2.2-8.3 4-8.3.5 0 1.6 1 2.4 2.2z"/><path d="M58.5 93.9c-.7 1.2 1.2 2.4 2.5 1.6 1.1-.7.4-2.5-1-2.5-.5 0-1.1.4-1.5.9zm31.2-7.1c-2.2 2.4-2.3 11.9-.1 15 .8 1.2 2.5 2.2 3.8 2.2 5.2 0 8.1-8.4 5.3-15.3-1.3-3.1-2.1-3.7-4.5-3.7-1.6 0-3.6.8-4.5 1.8zm6.3.7c1.4 1.6 1.8 11.4.6 13.4-.9 1.5-3.9 1.4-5.4-.1-1.8-1.8-1.5-11.3.4-13.2 1.9-2 2.8-2 4.4-.1z"/><path d="M92.2 94.2c.6 1.8 2.8 2.1 2.8.4 0-.9-.7-1.6-1.6-1.6-.9 0-1.4.5-1.2 1.2zm214.8.3c0 5.7.4 9.5 1 9.5s1-1.5 1-3.4c0-3.2.2-3.5 4-4.1 9.4-1.6 7.5-11.5-2.2-11.5H307v9.5zm8.8-5.8c1.7 3.3-.4 6.3-4.5 6.3-2 0-2.3-.5-2.3-4 0-3.8.2-4 3-4 1.8 0 3.3.7 3.8 1.7zm161.4-2.1c-1.2.8-2.2 2-2.2 2.7 0 .8.3.8 1.2-.1 2.8-2.8 3.8-1.3 3.8 5.8 0 6.8-.1 7-2.5 7-1.4 0-2.5.4-2.5 1 0 .5 2.5 1 5.5 1s5.5-.5 5.5-1c0-.6-.9-1-2-1-1.8 0-2-.7-2-8.5 0-9.1-.5-9.9-4.8-6.9zm15-.4c-1.3 1.3-1.6 6.7-.4 8.4 1.2 1.8 4.2 2.4 6.3 1.4 1.5-.8 1.9-.7 1.9.4 0 1.8-3.8 5.6-5.6 5.6-.7 0-1.6.5-2 1.1-1.3 2.1 4.9-.1 7.5-2.6 1.9-1.9 2.5-3.5 2.5-7.3.1-2.8-.5-5.6-1.3-6.5-1.6-2-7.1-2.3-8.9-.5zm7.4 2.7c1.6 3 .8 5-2.2 5.7-3.1.8-4.4-.2-4.4-3.5 0-5.2 4.4-6.7 6.6-2.2zm134.4-.2c-5.7.9-7 1.4-8 3.4-.7 1.1-.8 2.8-.4 3.7.4.9.8 2.8.8 4.2.1 2 .7 2.6 3.6 3 5.1.9 6.4 1.8 4.9 3.6-1.4 1.7-6.1 1.8-7.7.2-.6-.6-1.5-.8-1.9-.4-.5.4.1 1.4 1.1 2.2 4.6 3.3 12.9-.3 10.6-4.6-.6-1.1-2.1-2-3.5-2-3 0-5.5-1-5.5-2.1 0-.5.9-.9 2.1-.9 5 0 7.8-4.7 4.7-7.8-.9-.9-.7-1.2 1-1.2 1.2 0 2.2-.5 2.2-1 0-.6-.3-.9-.7-.9-.5.1-1.9.3-3.3.6zm-.2 4.9c.6 4-4.8 5.6-6.2 1.8-1-2.6.5-4.5 3.3-4.2 1.7.2 2.7 1 2.9 2.4zm-310.2-3.9c-.9 1-.7 8.9.4 11.7.9 2.4 1.4 2.6 5.5 2.4l4.5-.3v-7.3c0-8.8-1.8-9.6-2.2-1-.3 6-.4 6.3-3 6.6-2.8.3-2.8.3-2.8-5.7 0-5.6-.9-7.9-2.4-6.4zm50.9.3c-.4.6.5 1 1.9 1 2.5 0 2.6.3 2.6 5.5s-.1 5.5-2.5 5.5c-1.4 0-2.5.4-2.5 1 0 .5 2.5 1 5.5 1s5.5-.5 5.5-1c0-.6-.9-1-2-1-1.8 0-2-.7-2-6.5V89h-2.9c-1.7 0-3.3.4-3.6 1zm17.7.2c-2.3 2.3-1.3 4.7 2.6 6.5 5.2 2.5 4.9 4.8-.5 4.7-4.3-.1-5.6.9-2.7 2 2.6 1 6.9.7 8.2-.6 2.5-2.5 1.4-5.5-2.8-7.2-2.4-.9-4-2.2-4-3.2 0-1.4.7-1.6 4-1.1 4 .5 5.5-.5 2.4-1.7-2.5-1-5.9-.7-7.2.6zm33.8.8c-2.6 2.6-2.7 9-.2 11.3 2.1 1.9 5.9 2.2 8.2.7 1.6-1 .8-1.3-2.8-1-2.6.2-5.2-1.6-5.2-3.6 0-1 1.4-1.4 5-1.4 5.2 0 5.8-.6 3.9-4.3-2.3-4.2-5.7-4.9-8.9-1.7zm6.9 1.9c1.3 2.4.5 3.1-3.6 3.1-3.4 0-4.3-1.6-2.1-3.8 1.8-1.8 4.6-1.5 5.7.7zm110.2-3c-1.1.7-.4 1 2.4 1.3 5.7.4 6 3.3.6 4.2-3.2.5-4.2 1.1-4.7 3.1-1 3.9 1 5.4 6.7 5.2 3.6-.1 4.8-.5 4.4-1.5-.3-.8-.5-3.3-.5-5.7 0-6.3-4.3-9.5-8.9-6.6zM550 99c0 2.7-3.2 4.3-5.5 2.6-2.7-1.9-1.2-4.6 2.5-4.6 2.3 0 3 .4 3 2zm8-8.9c0 .6 1.2 4.4 2.6 8.3l2.5 7.1-2.2 1.8c-1.2.9-1.9 2-1.7 2.3 1.4 1.4 5.9-4.8 8.2-11.4 2.8-7.9 3.1-9.2 1.8-9.2-.5 0-1.7 2.7-2.7 6-1 3.3-2.1 6-2.5 6-.4 0-1.5-2.7-2.5-6-1.6-5.3-3.5-8-3.5-4.9zm19.2.1c-2.3 2.3-1.3 4.7 2.6 6.5 5.2 2.5 4.9 4.8-.5 4.7-4.3-.1-5.6.9-2.7 2 2.6 1 6.9.7 8.2-.6 2.5-2.5 1.4-5.5-2.8-7.2-2.4-.9-4-2.2-4-3.2 0-1.4.7-1.6 4-1.1 4 .5 5.5-.5 2.4-1.7-2.5-1-5.9-.7-7.2.6zm32.9-.3c-1.1.7-.4 1 2.4 1.3 2.8.2 4.1.8 4.3 2 .3 1.3-.3 1.8-2 1.8-3.4 0-7 2.8-6.6 5.2.5 3.2 3.2 4.5 6.8 3.1 1.6-.6 3-.7 3-.2 0 .5.4.9.8.9 1.5 0 .1-12.4-1.6-13.8-1.9-1.4-5.1-1.6-7.1-.3zM617 99c0 2.8-3.4 4.4-5.4 2.5-2.2-2.2-.9-4.5 2.5-4.5 2.2 0 2.9.5 2.9 2zm27-8c-2.6 2.6-2.7 9-.2 11.3 2.6 2.4 6.8 2.1 8.6-.5 3.4-4.9.7-12.8-4.4-12.8-1.1 0-2.9.9-4 2zm7.4 3.2c1.3 3.8-.6 7.8-3.8 7.8-2.6 0-3.6-1.6-3.6-5.9 0-5.5 5.6-6.9 7.4-1.9zm-526.1-2.5c-1.7.6-1.6 3.8.1 5.2 2.2 1.8 4.8.2 4.4-2.8-.3-2.5-2-3.5-4.5-2.4zm150.6.9c-1.5 1.8-.2 4.7 2.4 5.2 2.2.5 4.2-3.5 2.6-5.4-1.5-1.8-3.3-1.8-5 .2zm-234.7 9.1c.5 2.6 3.8 2.9 3.8.4 0-1.5-.6-2.1-2.1-2.1-1.4 0-1.9.5-1.7 1.7zm33.8.4c0 1.4.5 1.9 1.7 1.7 2.6-.5 2.9-3.8.4-3.8-1.5 0-2.1.6-2.1 2.1z"/></svg>