<svg version="1.0" xmlns="http://www.w3.org/2000/svg" width="1840" height="661.333" viewBox="0 0 1380 496"><path d="M1319 35.5V48h5V23h-5v12.5zm-109 1V48h7.5c5.9 0 7.5-.3 7.5-1.4 0-1.1-1.5-1.6-5.2-1.8l-5.3-.3V41c0-3.3.2-3.5 3.8-3.8 5.4-.5 5.1-3.2-.4-3.2-3.8 0-4-.1-3.7-2.8.3-2.5.7-2.7 5.1-3 3.3-.2 4.7-.7 4.7-1.8s-1.6-1.4-7-1.4h-7v11.5zm39.8-5.8c-1 .2-1.8 1.1-1.8 2 0 1.1.6 1.4 2.4.9 1.4-.3 3.2-.3 4 0 2.8 1.1 1.7 3.3-2 4-4.1.7-6.9 4.3-5.9 7.3.8 2.6 4.9 3.7 8 2.3 1.5-.7 2.6-.8 3-.2 1 1.6 5.5 1.2 5.5-.5 0-.8-.4-1.5-1-1.5-.5 0-1-2.5-1-5.5 0-8-3.6-10.8-11.2-8.8zm6 11.5c-.2 1.3-1.1 2.4-2.1 2.6-2.2.4-3.5-2.7-1.6-3.9 2.5-1.6 4.1-1 3.7 1.3zm17.4-10.6c-1.2.8-2.2 1-2.2.5 0-.6-.9-1.1-2-1.1-1.8 0-2 .7-2 8.5s.2 8.5 2 8.5 2-.7 2-5.3c0-4.1.5-5.8 1.9-7.1 3-2.7 4.1-1.1 4.1 6 0 6.1.1 6.4 2.5 6.4 2.3 0 2.4-.4 2.7-6.1.2-4.5.8-6.5 2-7.3 2.5-1.5 3.2-.3 3.6 6.9.4 5.6.7 6.5 2.3 6.5 1.7 0 1.9-.8 1.9-8 0-7.6-.1-8.1-2.5-9.2-1.9-.9-2.9-.7-5 .6-2.4 1.6-2.8 1.6-4.4.2-2.2-2-4.1-2-6.9 0zm31 0c-1.2.8-2.2 1-2.2.5 0-.6-.9-1.1-2-1.1-1.9 0-2 .7-2 11.5s.1 11.5 2 11.5c1.6 0 2-.7 2-3.4 0-3.4.1-3.4 3.8-2.9 4.6.6 7.1-1.1 8.1-5.7 1.1-5-.4-9.9-3.5-11-3.3-1.3-3.6-1.3-6.2.6zm4.8 5.4c1.4 5-2.3 9.7-5.5 7-3.3-2.7-.6-10.6 3.3-9.8.9.2 1.9 1.4 2.2 2.8zm23.4-5.6c-3.5 1.6-4.4 3.2-4.4 8.2 0 5.4 3.7 8.6 9.7 8.2 3.6-.2 4.9-.7 5.1-2 .3-1.4-.3-1.6-3.1-1.1-2.4.3-3.8 0-5-1.2-2.8-2.7-2-3.5 3.3-3.5 4.8 0 5-.1 5-2.8 0-3.3-.8-4.5-3.7-6.1-2.7-1.4-3-1.4-6.9.3zm5.5 3.5c1.2 2.2.5 3.1-2.6 3.1-2.5 0-3-1.9-1.1-3.8 1.7-1.7 2.6-1.5 3.7.7zM1228 31.6c0 .3 1.1 2.1 2.5 4.1l2.4 3.6-3 4.1c-2.6 3.6-2.8 4.1-1.2 4.5 1 .2 2.7-.9 4-2.5 2.4-3 2.5-3 5.2 1.4.4.8 2 1.2 3.5 1l2.6-.3-2.5-3.7c-3-4.4-3.1-5.5-.5-8.8 2.5-3.1 2.5-4 .1-4-1 0-2.6 1-3.4 2.2l-1.6 2.3-1.6-2.3c-1.4-1.9-6.5-3.2-6.5-1.6zM174 45.5c0 4.3-.1 4.4-2.3 3.4-3.1-1.4-7.5.4-8.7 3.6-1.5 3.9-1.2 8.7.6 11.3 1.7 2.5 7.1 3.1 9.2 1 .9-.9 1.2-.9 1.2 0 0 .7 1.1 1.2 2.5 1.2h2.5V41h-2.5c-2.3 0-2.5.4-2.5 4.5zm0 10.8c0 3.6-1.5 5.7-4.1 5.7-3.1 0-4-6.7-1.3-9.4 2.4-2.4 5.4-.4 5.4 3.7zm725-2.8V66h5V41h-5v12.5zM125.4 43.4c-1.7.8-3.9 2.4-4.8 3.7-3.3 4.7-1.3 15.4 3.3 17.9 2.1 1.1 11 1.4 13.5.4.9-.3 1.6-1.5 1.6-2.5 0-1.6-.4-1.7-2.6-.9-4.2 1.6-7.3 1.1-9.9-1.5-2.7-2.6-3.4-8-1.5-11.5 1.4-2.6 6.3-4.1 10-3 2.4.7 3.2.6 3.7-.6.3-.8.3-1.8-.1-2.1-1.3-1.3-10.2-1.3-13.2.1zm344.8.2c-3.2 2.2-3 7.7.4 10.1 7.1 5 7.9 6 6.4 7.8-1 1.3-2.4 1.6-5.2 1.2-3.2-.4-3.8-.2-3.8 1.4 0 1.6.8 1.9 5.5 1.9 11.5 0 13.1-9 2.7-14.4-5.6-2.9-4.1-7.1 2.1-5.9 2 .4 2.7.1 2.7-1 0-3-7.1-3.7-10.8-1.1zM856 54.5c0 10.7.1 11.5 1.9 11.5 1.7 0 2-.8 2.3-4.7.2-2.5.8-4.8 1.5-5 .6-.2 2.4 1.9 4 4.6 2.5 4.5 3.2 5.1 6.1 5.1h3.4l-3.6-4.9c-3.6-4.8-4.4-7.1-2.7-7.1.5 0 1.4-1.4 2-3.2.9-2.5.8-3.6-.4-5.5-1.4-2-2.3-2.3-8-2.3H856v11.5zm9.8-7.3c.7.7 1.2 1.5 1.2 1.9 0 1.5-3.2 3.9-5.1 3.9-1.5 0-1.9-.7-1.9-3.5 0-3 .3-3.5 2.3-3.5 1.3 0 2.8.5 3.5 1.2zm-632.5-1.5c-.7.2-1.3 1.1-1.3 1.9 0 .8-.4 1.4-1 1.4-.5 0-1 .7-1 1.5s.5 1.5 1 1.5c.6 0 1 2.4 1 5.4 0 6.3 1.6 8.6 6.1 8.6 3.3 0 4-2.5.9-3.3-1.7-.4-2-1.4-2-5.6 0-3.9.4-5.1 1.5-5.1.8 0 1.5-.7 1.5-1.5s-.7-1.5-1.5-1.5-1.5-.9-1.5-2c0-1.9-1.2-2.4-3.7-1.3zm30.7 1.5c-2.1 2.3-2.7 4.8-1 4.8.6 0 1 2.6 1 5.9 0 6.6 1.3 8.4 5.6 7.9 3.3-.4 4.3-2.3 1.4-3.1-1.7-.4-2-1.3-2-5.6 0-3.9.4-5.1 1.5-5.1.8 0 1.5-.7 1.5-1.5s-.6-1.5-1.4-1.5c-.7 0-1.6-.9-1.9-2-.7-2.6-2.1-2.5-4.7.2zm224.3-1.5c-.7.2-1.3 1.1-1.3 1.8s-.6 1.5-1.2 1.8c-1 .3-1 .7-.2 1.8.6.8 1.4 4 1.6 7.2.5 6.3 1.6 7.7 6.1 7.7 3.2 0 3.7-2.5.7-3.3-1.7-.4-2-1.4-2-5.5s.3-5.1 2-5.5c1.1-.3 2-1 2-1.6 0-.6-.9-1.1-2-1.1-1.3 0-2-.7-2-2 0-1.9-1.2-2.4-3.7-1.3zM146.5 49c-4.2 1.6-6.2 7-4.5 11.6 1.5 3.8 3.8 5.3 8.3 5.4 5.2 0 8.7-3.5 8.7-8.7-.1-4.5-1.6-6.8-5.4-8.3-3.2-1.2-4.3-1.2-7.1 0zm5.9 3.6c2 1.9 2.1 7.8.1 9.4-4.1 3.4-8.3-3.6-5.1-8.5 1.9-2.9 2.9-3.1 5-.9zm35-3.2c-3.5 1.6-4.4 3.2-4.4 8.2 0 5.4 3.7 8.6 9.7 8.2 3.6-.2 4.9-.7 5.1-2 .3-1.4-.3-1.6-3.1-1.1-2.4.3-3.8 0-5-1.2-2.8-2.7-2-3.5 3.3-3.5 4.8 0 5-.1 5-2.8 0-3.3-.8-4.5-3.7-6.1-2.7-1.4-3-1.4-6.9.3zm5.5 3.5c1.2 2.2.5 3.1-2.6 3.1-2.5 0-3-1.9-1.1-3.8 1.7-1.7 2.6-1.5 3.7.7zm23.3-3.8c-1.9.7-2.3 1.5-2 4.1.2 2.6 1.1 3.7 4 5.3 4.8 2.5 4.3 4.1-1.1 3.8-3.5-.2-4.2.1-3.9 1.5.5 2.7 9.8 2.9 12.2.3 2.8-3 1.4-6.4-3.4-8.6-2.2-1-4-2.1-4-2.5 0-1.3 3-2 5.6-1.4 1.7.4 2.4.2 2.4-.9 0-2.4-5.5-3.4-9.8-1.6zm30.6-.4c-1 .2-1.8 1.1-1.8 2 0 1.1.6 1.4 2.4.9 1.4-.3 3.2-.3 4 0 2.8 1.1 1.7 3.3-2 4-4.1.7-6.9 4.3-5.9 7.3.8 2.6 4.9 3.7 8 2.3 1.5-.7 2.6-.8 3-.2 1 1.6 5.5 1.2 5.5-.5 0-.8-.4-1.5-1-1.5-.5 0-1-2.5-1-5.5 0-8-3.6-10.8-11.2-8.8zm6 11.5c-.2 1.3-1.1 2.4-2.1 2.6-2.2.4-3.5-2.7-1.6-3.9 2.5-1.6 4.1-1 3.7 1.3zM300.3 49c-2.3.9-3.7 3.9-2.8 6.1.3.8 2.2 2.3 4.2 3.4 4.4 2.5 4.1 4-1 3.9-2.9-.1-3.7.3-3.5 1.5.2 1 1.6 1.7 3.7 1.9 5 .5 8-.6 9.3-3.3 1.4-3-.1-5.2-5-7.2-4.1-1.7-3.7-3.9.7-3.7 1.9.1 3.1-.3 3.1-1.1 0-2.4-4.6-3.2-8.7-1.5zm201.5-.3c-1 .2-1.8 1.3-1.8 2.3 0 1.6.3 1.7 3.1.7 2.7-1.1 3.2-1 4.5.8 1.4 1.9 1.3 2.1-2.3 3-2.1.5-4.4 1.4-5.1 1.8-1.5 1-1.6 5.9 0 7.5 1.5 1.5 6 1.6 7.5.1.8-.8 1.3-.8 1.7 0 1.1 1.7 5.6 1.4 5.6-.4 0-.8-.4-1.5-1-1.5s-1-2.6-1-5.9c0-5.1-.3-6.2-2.2-7.5-2.2-1.5-5.4-1.9-9-.9zm6.7 11.2c0 2.2-3.2 3.8-4.6 2.4-.9-.9-.9-1.6.1-2.8 1.5-1.9 4.5-1.6 4.5.4zm12.1-9.7c-4.7 4-3.5 14 1.8 15.4 1.3.3 3.3.1 4.4-.5 2.8-1.5 3.1-1.4 2.5.9-.6 2.4-3.4 3.4-7.4 2.5-2.6-.6-3-.4-2.7 1.2.2 1.4 1.4 1.9 5.5 2.1 8 .5 9.3-1.3 9.3-13.3V49l-2.7.1c-1.6.1-4-.1-5.4-.5-2-.6-3.3-.2-5.3 1.6zm7.5 1.8c3.6 2 1.3 10-2.8 10-3 0-3.7-6.3-1-9.8 1.1-1.5 1.3-1.5 3.8-.2zm15.2-3c-2.9 1.2-4.3 4-4.3 8.9 0 5.5 3.6 8.3 9.9 7.9 3.4-.2 4.7-.8 4.9-2 .3-1.4-.3-1.6-3.2-1.1-3.8.6-6.6-.8-6.6-3.3 0-1 1.4-1.4 5-1.4 4.6 0 5-.2 5-2.4 0-5-5.9-8.6-10.7-6.6zm5.5 4.8c.3 1.8-.2 2.2-2.2 2.2-2.8 0-3.4-1.8-1.4-3.8 1.7-1.7 3.2-1 3.6 1.6zm363.6-4.4c-3.5 1.6-4.4 3.2-4.4 8.2 0 5.4 3.7 8.6 9.7 8.2 3.6-.2 4.9-.7 5.1-2 .3-1.4-.3-1.6-3.1-1.1-2.4.3-3.8 0-5-1.2-2.8-2.7-2-3.5 3.3-3.5 4.8 0 5-.1 5-2.8 0-3.3-.8-4.5-3.7-6.1-2.7-1.4-3-1.4-6.9.3zm5.5 3.5c1.2 2.2.5 3.1-2.6 3.1-2.5 0-3-1.9-1.1-3.8 1.7-1.7 2.6-1.5 3.7.7zM276 54.4c0 9.6 2.5 13 8.1 10.9 1.6-.7 2.9-.7 2.9-.2 0 .5 1.1.9 2.5.9 2.5 0 2.5-.1 2.5-8.5s0-8.5-2.5-8.5c-2.4 0-2.5.3-2.5 5.4 0 5.6-1.7 8.3-4.5 7.2-1.1-.4-1.5-2.1-1.5-6.6 0-5.7-.1-6-2.5-6s-2.5.3-2.5 5.4zm602 1.9c0 8 .9 9.7 5 9.7 1.4 0 3.1-.5 3.8-1.2.9-.9 1.2-.9 1.2 0 0 .7 1.1 1.2 2.5 1.2 2.5 0 2.5-.1 2.5-8.5s0-8.5-2.5-8.5c-2.2 0-2.4.4-2.7 5.6-.2 4.2-.8 6-2.1 6.8-2.5 1.6-3.7-.7-3.7-7.2 0-4.5-.3-5.2-2-5.2-1.8 0-2 .7-2 7.3zm410 5.7c0 1.5.7 2 2.5 2s2.5-.5 2.5-2-.7-2-2.5-2-2.5.5-2.5 2zm-48.1 5.1c-6.1 2.3-6.4 12.7-.5 15.9 3.3 1.7 11 .9 11.4-1.2.3-1.4-.3-1.6-3.3-1.1-2.6.4-4.1.1-5.5-1.2-3.1-2.8-2.4-3.5 3.4-3.5h5.4l-.8-3.6c-.5-2-1.2-4-1.7-4.5-1.4-1.4-5.7-1.8-8.4-.8zm5.1 3.4c1.5 1.8.5 3.5-2 3.5-1 0-2.2-.5-2.5-1-.7-1.1 1.2-4 2.5-4 .4 0 1.3.7 2 1.5zm17.2-2.9c-1.2.8-2.2 1-2.2.5 0-.6-1.1-1.1-2.5-1.1-2.5 0-2.5.1-2.5 8.5s0 8.5 2.5 8.5c2.4 0 2.5-.3 2.5-5.3 0-5.4 1.9-8.7 4.8-8.7.7 0 1.2-.9 1.2-2 0-2.4-.8-2.5-3.8-.4zm10 0c-3.5 2.4-2.6 6.4 2 8.9 5.2 2.7 5.1 4.9-.2 4.2-3.5-.4-4-.2-4 1.4 0 1.6.7 1.9 4.9 1.9 5.6 0 8.1-1.7 8.1-5.6 0-1.8-1-2.9-4.1-4.4-4.6-2.4-4.7-4.6 0-4.2 3.7.3 4.4-2.2.9-3.2-3.6-.9-5.2-.7-7.6 1zm30.2-.6c-2.9 1.1-5.4 4.9-5.4 7.8 0 3 2.5 7.8 4.5 8.6 2.1.8 6.9.8 9 0 4.5-1.8 5.6-11.2 1.7-14.8-2.3-2-7-2.8-9.8-1.6zm6.6 5.3c2.9 5.1-2.3 11.7-5.7 7.1-1.8-2.5-1.6-6.4.4-8.6 2-2.3 3.4-1.9 5.3 1.5zm17.6-5.6c-.4.4-2.2.6-4.1.5l-3.5-.3v8.6c0 8.4 0 8.5 2.5 8.5 2.3 0 2.4-.4 2.7-6.1.2-4.6.8-6.5 2.1-7.3 2.6-1.6 3.7.7 3.7 7.6 0 5.1.2 5.8 2 5.8s2-.7 2-8c0-6.8-.3-8.1-1.9-9-2.3-1.2-4.5-1.3-5.5-.3zm-110.6.8c0 .3 1.4 4.2 3.1 8.5 2.6 6.8 3.4 8 5.4 8 2 0 2.8-1.2 5.4-8.1 1.7-4.5 2.9-8.4 2.7-8.7-1.4-1.3-3.6 1.2-5.1 5.8-1.9 5.8-2.4 5.6-5-1.3-1.4-3.8-2.2-4.7-4.1-4.7-1.3 0-2.4.2-2.4.5zm72 8c0 8.4 0 8.5 2.5 8.5s2.5-.1 2.5-8.5 0-8.5-2.5-8.5-2.5.1-2.5 8.5zm-835 59c0 9.6.3 11.5 1.5 11.5s1.5-1.7 1.5-8.8l.1-8.7 5.6 8.7c3.7 5.9 6.2 8.8 7.4 8.8 1.7 0 1.9-.9 1.9-11.5 0-9.4-.3-11.5-1.5-11.5-1.1 0-1.5 1.8-1.7 8.2l-.3 8.3-5.5-8.3c-3.4-5.2-6.1-8.2-7.2-8.2-1.6 0-1.8 1.1-1.8 11.5zm27.3-5.4c-4.8 1.8-6.1 10.3-2.2 14.5 2.7 2.9 10.9 3.6 10.9.9 0-1.1-.7-1.4-2.5-.9-2.9.7-7.5-1.8-7.5-4.1 0-1.1 1.3-1.5 5-1.5 4.8 0 5-.1 5-2.8 0-1.5-.4-3.2-.8-3.9-1.2-1.9-5.5-3.1-7.9-2.2zm4.7 2.3c0 .2.3 1.1.6 2 .5 1.3-.1 1.6-3 1.6-3.8 0-4.4-.8-2.4-2.8 1.1-1.1 4.8-1.7 4.8-.8zm7.3-.7c.2 1 1.3 4.8 2.3 8.5 2.4 8.9 4.3 9 7.1.5l2-6.2 1.8 6.2c2.2 7.5 4.5 8.4 6.3 2.5 4.3-13.8 4.2-13.2 2.7-13.2-.8 0-2.1 2.3-3.1 5.5-1 3-2.1 5.5-2.4 5.5-.4 0-1.2-2.5-1.9-5.5-1.8-7.8-4.2-7.6-6.7.7l-1.9 6.3-1.8-6.3c-1.2-4.1-2.4-6.2-3.4-6.2s-1.4.6-1 1.7zM146 151.5c0 10.4.2 12.5 1.5 12.5s1.5-2.1 1.5-12.5-.2-12.5-1.5-12.5-1.5 2.1-1.5 12.5zm611 0c0 10.4.2 12.5 1.5 12.5 1.2 0 1.5-1.3 1.5-5.5s.5-6 2-7.5c4.3-4.3 6-2.2 6 7.1 0 4.6.3 5.9 1.5 5.9s1.5-1.5 1.5-7.4c0-6.4-.3-7.7-2.1-8.9-2-1.5-5.3-1.2-7.6.6-1 .7-1.3-.2-1.3-4.2 0-3.9-.4-5.1-1.5-5.1-1.3 0-1.5 2.1-1.5 12.5zm-126.8-9.9c-4.5 3.1-2.5 8 5.1 12.7 5.3 3.4 2.4 8.8-3.8 6.9-3.1-.9-3.5-.8-3.5.9 0 1.6.7 1.9 4.8 1.9 5.5 0 7.8-1.4 8.7-5.2.7-2.8-.9-5-8.1-10.4-1.9-1.5-2.5-2.6-2.1-3.9.6-1.4 1.5-1.7 4.7-1.2 2.9.4 4 .1 4-.8 0-2.8-6.3-3.4-9.8-.9zm162.1-.5c-3.6 1.1-4.4 2.9-1.3 2.9 1.8 0 2 .7 2 8.5s-.2 8.5-2 8.5c-1.1 0-2 .7-2 1.5 0 1.2 1.3 1.5 6 1.5s6-.3 6-1.5c0-.8-.9-1.5-2-1.5-1.9 0-2-.7-2-10.5 0-5.8-.3-10.5-.7-10.4-.5 0-2.3.5-4 1zm28 .4c-4.7 3.3-5.1 15.7-.7 20.6 2.3 2.5 7.6 2.5 9.9-.1 2-2.2 3.2-11.1 2.1-15.5-1.4-5.7-6.9-8.1-11.3-5zm7.7 4.1c2.4 6.3.3 16.4-3.5 16.4s-6.2-11.9-3.5-17.1c1.6-2.9 5.8-2.5 7 .7zm22-3.1c-3.4 3.6-4 13.6-1.1 18.2 3.4 5.4 10.9 4.3 13-1.8 4.2-12.1-4.6-24.2-11.9-16.4zm8 2c1.4 1.6 1.8 9.7.7 13.7-.9 3.4-4.3 4.6-6.6 2.4-2.1-2.1-2.3-13.5-.2-15.9 1.7-2.1 4.5-2.2 6.1-.2zm356.3-3.4c-3.6 1.1-4.4 2.9-1.3 2.9 1.8 0 2 .7 2 8.5s-.2 8.5-2 8.5c-1.1 0-2 .7-2 1.5 0 1.2 1.3 1.5 6 1.5s6-.3 6-1.5c0-.8-.9-1.5-2-1.5-1.9 0-2-.7-2-10.5 0-5.8-.3-10.5-.7-10.4-.5 0-2.3.5-4 1zm28 .4c-4.7 3.3-5.1 15.7-.7 20.6 2.3 2.5 7.6 2.5 9.9-.1 2-2.2 3.2-11.1 2.1-15.5-1.4-5.7-6.9-8.1-11.3-5zm7.7 4.1c2.4 6.3.3 16.4-3.5 16.4s-6.2-11.9-3.5-17.1c1.6-2.9 5.8-2.5 7 .7zm22-3.1c-3.4 3.6-4 13.6-1.1 18.2 3.4 5.4 10.9 4.3 13-1.8 4.2-12.1-4.6-24.2-11.9-16.4zm8 2c1.4 1.6 1.8 9.7.7 13.7-.9 3.4-4.3 4.6-6.6 2.4-2.1-2.1-2.3-13.5-.2-15.9 1.7-2.1 4.5-2.2 6.1-.2zm-1243 8c0 9.4.3 11.5 1.4 11.5 1.1 0 1.6-1.5 1.8-5.3l.3-5.2 3.8-.3c5-.4 4.8-2.2-.3-2.2h-4v-8h5c2.8 0 5-.5 5-1 0-.6-2.8-1-6.5-1H37v11.5zm17-10c0 .8.7 1.5 1.5 1.5s1.5-.7 1.5-1.5-.7-1.5-1.5-1.5-1.5.7-1.5 1.5zm682 0c0 .8.7 1.5 1.5 1.5s1.5-.7 1.5-1.5-.7-1.5-1.5-1.5-1.5.7-1.5 1.5zm-641.7 1.2c-.7.3-1.3 1.1-1.3 1.8s-.6 1.6-1.2 1.9c-1 .5-1 .7 0 1.2.8.4 1.2 2.8 1.2 6.8 0 6.7 1 8.6 4.7 8.6 2.8 0 3-1.1.3-2.8-1.6-1-2-2.3-2-6.7 0-4.8.2-5.5 2-5.5 1.1 0 2-.5 2-1 0-.6-.9-1-1.9-1-1.1 0-2.1-.8-2.3-1.8-.2-1.1-.9-1.7-1.5-1.5zm551.7 1.7c0 .8-.6 1.7-1.2 1.9-1 .4-1 .8-.2 1.4.6.4 1.3 3.6 1.6 7.1.5 6.7 1.5 8.2 5.6 8.2 2.7 0 2.9-1.6.2-2.3-1.7-.4-2-1.4-2-6.6 0-5.4.2-6.1 2-6.1 1.1 0 2-.5 2-1 0-.6-.9-1-2-1s-2-.7-2-1.5-.9-1.5-2-1.5-2 .6-2 1.4zm43 0c0 .8-.6 1.7-1.2 2-1 .5-1 .7 0 1.2.7.3 1.2 2.6 1.2 6 0 7.1 1.2 9.4 5 9.4 3.6 0 3.9-1.1.8-2.5-2-.9-2.3-1.8-2.3-6.5 0-4.9.2-5.5 2.3-5.8 2.8-.4 2.9-2.2.2-2.2-1.1 0-2.3-.7-2.6-1.5-.8-1.9-3.4-2-3.4-.1zm56 0c0 .8-.6 1.7-1.2 2-1 .5-1 .7 0 1.2.7.3 1.2 2.6 1.2 6 0 7.1 1.2 9.4 5 9.4 3.6 0 3.9-1.1.8-2.5-2-.9-2.3-1.8-2.3-6.5 0-4.9.2-5.5 2.3-5.8 2.8-.4 2.9-2.2.2-2.2-1.1 0-2.3-.7-2.6-1.5-.8-1.9-3.4-2-3.4-.1zm-675.8 2.2c-1.2.8-2.2 1-2.2.5 0-.6-.7-1.1-1.5-1.1-1.2 0-1.5 1.6-1.5 8.5s.3 8.5 1.5 8.5 1.5-1.3 1.5-5.8c0-5.9 1.8-9.2 4.8-9.2.7 0 1.2-.7 1.2-1.5 0-1.9-1-1.9-3.8.1zm10.2-.6c-4.8 1.9-4.3 6.7 1.1 9.3 5.5 2.6 3.9 6.6-2.2 5.1-1.9-.5-2.4-.3-2.1.7.6 1.8 6.1 2.4 8.8.9 1.3-.7 2-2.1 2-4 0-2.5-.7-3.3-4.1-5-4.6-2.4-4.7-4.4-.1-4.8 1.8-.2 3.2-.7 3.2-1.3 0-.5-.4-.9-.9-.9s-1.5-.2-2.3-.4c-.7-.3-2.3-.1-3.4.4zm41.4.4c-1.6.8-2.8 1.1-2.8.5 0-.5-.7-.9-1.5-.9-1.2 0-1.5 1.6-1.5 8.5s.3 8.5 1.5 8.5 1.5-1.3 1.5-6c0-5.7.2-6.2 3-7.8 1.6-.9 3-2.3 3-3 0-1.5.1-1.5-3.2.2zm11.5-.6c-5.5.8-7.3 10.3-2.8 14.8 2 2 3.3 2.5 6.7 2.2 2.3-.2 4.3-.9 4.6-1.6.3-1-.4-1.2-3.1-.7-2.8.6-3.9.3-5.6-1.4-3.3-3.3-2.5-4.1 3.4-4.1 5.5 0 5.5 0 4.9-2.8-1.4-5.8-3.2-7.2-8.1-6.4zm4.5 4.4c.3 1.5-.4 1.8-3.3 1.8-3.3 0-3.5-.2-2.5-2.1 1.4-2.4 5.3-2.2 5.8.3zm22.5-4.4c-5.5.8-7.3 10.3-2.8 14.8 2 2 3.3 2.5 6.7 2.2 2.3-.2 4.3-.9 4.6-1.6.3-1-.4-1.2-3.1-.7-2.8.6-3.9.3-5.6-1.4-3.3-3.3-2.5-4.1 3.4-4.1 5.5 0 5.5 0 4.9-2.8-1.4-5.8-3.2-7.2-8.1-6.4zm4.5 4.4c.3 1.5-.4 1.8-3.3 1.8-3.3 0-3.5-.2-2.5-2.1 1.4-2.4 5.3-2.2 5.8.3zm12.3-4.3c-4 1.1-3.6 2.8.6 2.7 3.1-.1 3.9.3 4.1 1.9.2 1.7-.5 2.3-4 3-4 .9-4.3 1.2-4.3 4.4 0 4.4 2.3 6 6.5 4.4 1.7-.6 3.2-.7 3.6-.2.7 1.2 4.4 1.2 4.4 0 0-.5-.5-1.1-1.2-1.3-.7-.3-1.4-3.2-1.6-7.2-.4-6-.7-6.8-2.9-7.7-1.3-.5-2.5-.9-2.6-.8-.1.1-1.3.4-2.6.8zm4.7 11.3c-.4 3.1-5.8 4-5.8.9 0-2 1.2-2.9 4.3-3 1.4-.1 1.8.5 1.5 2.1zm12.6-11.2c-4.8 1.9-4.3 6.7 1.1 9.3 5.5 2.6 3.9 6.6-2.2 5.1-1.9-.5-2.4-.3-2.1.7.6 1.8 6.1 2.4 8.8.9 1.3-.7 2-2.1 2-4 0-2.5-.7-3.3-4.1-5-4.6-2.4-4.7-4.4-.1-4.8 1.8-.2 3.2-.7 3.2-1.3 0-.5-.4-.9-.9-.9s-1.5-.2-2.3-.4c-.7-.3-2.3-.1-3.4.4zm17.9-.2c-5.5.8-7.3 10.3-2.8 14.8 2 2 3.3 2.5 6.7 2.2 2.3-.2 4.3-.9 4.6-1.6.3-1-.4-1.2-3.1-.7-2.8.6-3.9.3-5.6-1.4-3.3-3.3-2.5-4.1 3.4-4.1 5.5 0 5.5 0 4.9-2.8-1.4-5.8-3.2-7.2-8.1-6.4zm4.5 4.4c.3 1.5-.4 1.8-3.3 1.8-3.3 0-3.5-.2-2.5-2.1 1.4-2.4 5.3-2.2 5.8.3zm445.3-4.3c-4 1.1-3.8 3.1.2 2.4 2.8-.4 3.7-.1 4.6 1.5 1.2 2.3.6 3.2-2.3 3.2-5.1 0-8.5 5.7-5.4 8.8 1.5 1.5 6.5 1.6 7.4.1.4-.8.9-.8 1.7 0 1.3 1.3 4.7 1.5 4.7.2 0-.6-.4-1.3-1-1.6-.5-.3-1-3-1-5.9 0-7.4-3-10.3-8.9-8.7zm5.7 11.3c-.3 2.5-4.3 3.7-6.1 1.9-1.5-1.5 1-4.1 4-4.1 2 0 2.4.4 2.1 2.2zm15-10.8c-1.6.8-2.8 1.1-2.8.5 0-.5-.7-.9-1.5-.9-1.2 0-1.5 1.6-1.5 8.5s.3 8.5 1.5 8.5 1.5-1.3 1.5-6c0-5.7.2-6.2 3-7.8 1.6-.9 3-2.3 3-3 0-1.5.1-1.5-3.2.2zM54 155.5c0 6.9.3 8.5 1.5 8.5s1.5-1.6 1.5-8.5-.3-8.5-1.5-8.5-1.5 1.6-1.5 8.5zm654.4-7.3c.3.7 1.4 4.6 2.6 8.6 2.5 8.6 4.5 9.3 6.7 2.2.8-2.5 1.7-5.2 2-6 .3-.8 1.3 1.2 2.2 4.5 2.5 8.7 4.3 8.4 7.5-1.2 3-9 3-9.3 1.4-9.3-.7 0-2.2 2.8-3.2 6.3l-1.9 6.2-1.4-5c-2.2-7.7-2.2-7.7-4-7.3-1.2.2-2.3 2.1-3.2 5.6-.8 2.8-1.7 5.2-2.1 5.2-.4 0-1.3-2.4-2.1-5.2-.9-3.5-2-5.4-3.2-5.6-1-.2-1.5.1-1.3 1zm27.6 7.3c0 6.9.3 8.5 1.5 8.5s1.5-1.6 1.5-8.5-.3-8.5-1.5-8.5-1.5 1.6-1.5 8.5zm-219 5.8v4.2l-4.4-.3c-3.6-.3-4.6 0-6 1.9-2 3-2.1 9.8 0 12.7 1.6 2.4 5.3 2.9 8.5 1.2 1.3-.7 1.9-.7 1.9 0 0 .5.7 1 1.5 1 1.3 0 1.5-2.1 1.5-12.5s-.2-12.5-1.5-12.5c-1.1 0-1.5 1.1-1.5 4.3zm-1.2 6.9c.7.7 1.2 2.8 1.2 4.8 0 4.1-1.4 6-4.5 6-1.2 0-2.6-.5-3.3-1.2-1.5-1.5-1.6-6.3-.2-8.9 1.2-2.1 5-2.5 6.8-.7zM807 162c0 1.3.7 2 2 2s2-.7 2-2-.7-2-2-2-2 .7-2 2zm31 .1c0 1.4.5 1.9 1.7 1.7 2.6-.5 2.9-3.8.4-3.8-1.5 0-2.1.6-2.1 2.1zm391-.1c0 1.3.7 2 2 2s2-.7 2-2-.7-2-2-2-2 .7-2 2zm31 .1c0 1.4.5 1.9 1.7 1.7 2.6-.5 2.9-3.8.4-3.8-1.5 0-2.1.6-2.1 2.1zm-698 1.3c0 .8-.6 1.7-1.2 1.9-1 .4-1 .8-.2 1.4.6.4 1.3 3.6 1.6 7.1.5 6.7 1.5 8.2 5.6 8.2 2.7 0 2.9-1.6.2-2.3-1.7-.4-2-1.4-2-6.6 0-5.4.2-6.1 2-6.1 1.1 0 2-.5 2-1 0-.6-.9-1-2-1s-2-.7-2-1.5-.9-1.5-2-1.5-2 .6-2 1.4zm-103.4 2.1c-1.4.8-2.6 1-2.6.4 0-.5-.7-.9-1.5-.9-1.2 0-1.5 1.9-1.5 11.5s.3 11.5 1.5 11.5c1 0 1.5-1 1.5-3.4 0-3.4 0-3.4 3.9-2.9 5.5.7 8.1-2 8.1-8.5 0-5.5-.6-6.7-4.1-8.1-1.9-.7-3.4-.6-5.3.4zm4.8 3.1c2.3 2.2 2 7.7-.4 9.9-1.7 1.5-2.4 1.6-4.5.7-3.4-1.6-3.6-8.3-.3-10.6 2.8-2 3.3-2 5.2 0zm15.3-3.1c-1.5.8-2.7 1-2.7.4 0-.5-.7-.9-1.5-.9-1.2 0-1.5 1.6-1.5 8.5s.3 8.5 1.5 8.5 1.5-1.3 1.5-5.5c0-5.7 2.2-9.5 5.5-9.5.8 0 1.5-.4 1.5-.9 0-1.8-1.6-2-4.3-.6zm11.7-.4c-5.3 1.5-7.2 9.4-3.3 14.3 1.6 2 2.9 2.6 5.9 2.6 3 0 4.3-.6 5.9-2.6 2.2-2.8 2.8-8.3 1.1-11.4-1.3-2.5-5.9-3.8-9.6-2.9zm5 2.5c2.4.9 3.1 6.9 1.2 9.9-3.1 4.7-8 2.3-8-4 0-5.2 2.7-7.5 6.8-5.9zm55.1-2.4c-1.7.4-3.6 1.5-4.2 2.5-2 2.7-1.6 8.7.8 11.7 1.8 2.3 2.8 2.7 6.2 2.4 2.3-.2 4.2-.9 4.5-1.7.3-1-.2-1.2-2.2-.7s-3.2.1-5.1-1.8c-4.5-4.5-2.1-10.6 4.1-10.6 1.9 0 3.4-.4 3.4-.9 0-1.3-4.1-1.8-7.5-.9zm-24.5 7.1c0 4.3.5 7.8 1.2 8.5 1.6 1.6 6 1.5 7.7-.1 1.1-1 1.4-1 1.8 0 .3.7 1.1 1.3 1.9 1.3 1.1 0 1.4-1.8 1.4-8.5 0-6.9-.3-8.5-1.5-8.5-1.1 0-1.5 1.3-1.5 5.3 0 5.9-2.2 9.2-5.7 8.5-1.5-.3-1.9-1.5-2.1-7.1-.2-5.1-.6-6.7-1.7-6.7-1.2 0-1.5 1.6-1.5 7.3zM90 231.5c0 10.4.2 12.5 1.5 12.5 1.1 0 1.5-1.1 1.5-4.3v-4.2l3.6 4.2c2 2.4 4.4 4.3 5.5 4.3 2.7 0 2.4-1.2-1.6-5-1.9-1.9-3.5-3.7-3.5-4.2 0-.4 1.4-2.3 3.1-4.3 2.8-3.1 2.9-3.5 1.1-3.5-1.1 0-3.4 1.7-5.1 3.7l-3 3.8-.1-7.8c0-6.2-.3-7.7-1.5-7.7-1.3 0-1.5 2.1-1.5 12.5zm84-8c0 4.3-.1 4.4-2.3 3.6-5.2-2-10.5 4-9.3 10.5.4 1.8 1.4 4 2.2 4.9 1.8 1.8 6.5 2 8.2.3.9-.9 1.2-.9 1.2 0 0 .7.9 1.2 2 1.2 1.9 0 2-.7 2-12.5s-.1-12.5-2-12.5c-1.7 0-2 .7-2 4.5zm-1.6 6.1c1.1.4 1.6 1.9 1.6 4.9 0 4.8-1.7 6.8-5.2 6.3-1.9-.2-2.3-1-2.6-4.6-.4-6 1.7-8.3 6.2-6.6zm146.6 1.7v12.3l5.5.2c4.7.1 5.7-.2 7.5-2.5 3.7-4.7 2-13.3-2.9-14.6-1.1-.2-3.1.1-4.5.9l-2.6 1.3v-5c0-3.7-.4-4.9-1.5-4.9-1.3 0-1.5 2-1.5 12.3zm10.4-.1c2.1 3 2 6.1-.3 8.9-1.6 2.1-2.2 2.2-4.5 1.1-2.2-1-2.6-1.8-2.6-5.1 0-3 .6-4.4 2.2-5.5 2.9-2.1 3.4-2 5.2.6zm9.6.3c0 10.4.2 12.5 1.5 12.5s1.5-2.1 1.5-12.5-.2-12.5-1.5-12.5-1.5 2.1-1.5 12.5zm178 0c0 10.4.2 12.5 1.5 12.5 1.2 0 1.5-1.3 1.5-6 0-5.3.3-6.1 2.6-7.7 2.5-1.6 2.7-1.6 4 .2.8 1.1 1.4 4.3 1.4 7.7 0 4.5.3 5.8 1.5 5.8s1.5-1.4 1.5-6.8c0-9.2-2.9-12.5-8.4-9.7l-2.6 1.4v-5c0-3.7-.4-4.9-1.5-4.9-1.3 0-1.5 2.1-1.5 12.5zm-480 1V244h4.8c2.7 0 5.7-.7 7-1.6 3-2.1 2.9-6.7-.2-9.1-2.3-1.9-2.3-2-.5-3.1 2.2-1.4 2.6-6.1.7-8-.7-.7-3.6-1.2-6.5-1.2H37v11.5zm8.4-7.9c2.1 2.1 2 3-.6 4.8-3.7 2.6-4.8 2-4.8-2.4 0-3.3.3-4 1.9-4 1.1 0 2.7.7 3.5 1.6zm0 9.7c1.1.8 1.7 2.3 1.4 3.8-.2 1.9-1 2.5-3.5 2.7-3.2.3-3.3.2-3.3-3.7 0-3.3.4-4.1 1.8-4.1 1 0 2.6.6 3.6 1.3zM310 222.5c0 .8.7 1.5 1.5 1.5s1.5-.7 1.5-1.5-.7-1.5-1.5-1.5-1.5.7-1.5 1.5zm143 10c0 9.6.3 11.5 1.5 11.5 1.1 0 1.5-1.2 1.5-4.4 0-4.3 0-4.4 4.5-5.5 4.7-1.2 6.5-3.3 6.5-7.5 0-4-2.5-5.6-8.6-5.6H453v11.5zm9.4-8c2.5 2.6-.5 7.5-4.6 7.5-1.5 0-1.8-.8-1.8-4.5 0-4.1.2-4.5 2.4-4.5 1.4 0 3.1.7 4 1.5zm-165.2 1.6c-1 1.5-1.1 2.4-.3 3.2.6.6 1.1 3.6 1.1 6.7 0 6.1 1.1 8 4.7 8 2.8 0 3-1.6.3-2.3-1.7-.4-2-1.4-2-6.6 0-5.4.2-6.1 2-6.1 1.1 0 2-.5 2-1 0-.6-.9-1-2-1s-2-.7-2-1.5c0-2.2-2.3-1.8-3.8.6zm190.8-.7c0 .8-.6 1.7-1.2 1.9-1 .4-1 .8-.2 1.4.6.4 1.3 3.6 1.6 7.1.5 6.7 1.5 8.2 5.6 8.2 2.7 0 2.9-1.6.2-2.3-1.7-.4-2-1.4-2-6.6 0-5.4.2-6.1 2-6.1 1.1 0 2-.5 2-1 0-.6-.9-1-2-1s-2-.7-2-1.5-.9-1.5-2-1.5-2 .6-2 1.4zm-429.2 1.3c-1.6.2-2.8 1.1-2.8 1.8 0 1.1.8 1.3 3.1.8 2.1-.4 3.4-.1 4 .8 1.6 2.5 1 3.9-1.9 3.9-5.6 0-9.3 5.5-6 8.8 1.6 1.6 6 1.5 7.7-.1 1.1-1 1.4-1 1.8 0 .3.7 1.3 1.3 2.4 1.3 2 0 2.6-1.5.9-2.5-.5-.3-1-3.3-1-6.5 0-4.9-.4-6.1-2.2-7.4-1.2-.9-2.5-1.5-2.8-1.5-.3.1-1.7.4-3.2.6zm5 11.5c-.3 2.6-4.6 3.8-5.9 1.7-1.1-1.9.9-3.9 3.8-3.9 2 0 2.4.4 2.1 2.2zm13.7-11c-1.7.4-3.6 1.5-4.2 2.5-2 2.7-1.6 8.7.8 11.7 1.8 2.3 2.8 2.7 6.2 2.4 2.3-.2 4.2-.9 4.5-1.7.3-1-.2-1.2-2.2-.7-3.8.9-8.1-3.4-7.1-7.2 1-4 2.4-5.2 6.1-5.2 1.9 0 3.4-.4 3.4-.9 0-1.3-4.1-1.8-7.5-.9zm58.3-.4c-4.3.5-3.5 2.9 1 2.8 3.1-.1 3.7.2 4 2.1.3 2-.1 2.3-2.7 2.3-3 0-7.1 2.9-7.1 5.1 0 4.2 4.7 6.2 9.1 3.9 1.3-.7 1.9-.7 1.9 0 0 .5 1.1 1 2.5 1 2.9 0 3.1-.6 1-2.6-.9-1-1.5-3.5-1.5-6.7 0-2.9-.4-5.7-.8-6.3-.9-1.4-3.9-2-7.4-1.6zm5 11.4c-.4 3.1-5.8 4-5.8 1 0-2.5.8-3.2 3.7-3.2 2 0 2.4.5 2.1 2.2zm15.4-10.6c-1.2.8-2.2 1-2.2.5 0-.6-.7-1.1-1.5-1.1-1.2 0-1.5 1.6-1.5 8.5s.3 8.5 1.5 8.5 1.5-1.3 1.5-5.8c0-5.9 1.8-9.2 4.8-9.2.7 0 1.2-.7 1.2-1.5 0-1.9-1-1.9-3.8.1zm42-.9c-5.3 1-7.3 10.4-3.1 14.9 1.9 2 3.1 2.4 6.3 2.2 5.2-.4 6.2-2.8 1-2.6-2.5.1-4.1-.4-5-1.7-3.1-4.3-.3-10.5 4.7-10.5 1.6 0 2.9-.5 2.9-1 0-.6-.4-1-.9-1s-1.5-.2-2.3-.4c-.7-.2-2.3-.1-3.6.1zm15.7.4c-4.9 1.8-6.5 9.6-2.8 14.3 1.6 2 2.9 2.6 5.9 2.6 4.9 0 8-3.5 8-9.1 0-3.7-2.6-7.9-4.9-7.9-.5 0-1.5-.2-2.3-.4-.7-.3-2.5 0-3.9.5zm6.5 4.1c.9 1.2 1.6 3.2 1.6 4.3 0 2.9-2.8 6.5-4.9 6.5-2.7 0-4.5-2.7-4.5-6.5 0-6.1 4.8-8.7 7.8-4.3zm15.4-3.8c-1.6.8-2.8 1.1-2.8.5 0-.5-.7-.9-1.5-.9-1.2 0-1.5 1.6-1.5 8.5s.3 8.5 1.5 8.5 1.5-1.3 1.5-6c0-5.2.3-6.2 2.5-7.6 1.3-.8 2.9-1.3 3.5-.9.5.3 1 3.7 1 7.6 0 6.2.2 6.9 2 6.9s2-.7 2-5.8c0-4.6.4-6.3 2-7.7 3.3-3 5-.5 5 7.1 0 5 .3 6.4 1.5 6.4s1.5-1.5 1.5-7.3c0-3.9-.4-7.7-.8-8.3-1.4-2.1-4.5-2.5-6.9-.9-2.1 1.4-2.6 1.4-4.5 0-2.7-1.8-2.6-1.8-6-.1zm29.8.2c-1.4.7-2.6.9-2.6.3 0-.5-.7-.9-1.5-.9-1.2 0-1.5 1.9-1.5 11.5s.3 11.5 1.5 11.5c1 0 1.5-1 1.5-3.4 0-3.4 0-3.4 3.8-2.9 3.4.4 4.2.1 6-2.2 3.9-4.9 2.3-13.5-2.7-14.8-1.1-.2-3.1.1-4.5.9zm4.8 3.6c2.1 3 2 6.1-.3 8.9-1.6 2.1-2.2 2.2-4.5 1.1-2.2-1-2.6-1.8-2.6-5.1 0-3 .6-4.4 2.2-5.5 2.9-2.1 3.4-2 5.2.6zm12.4-4.5c-4.3.7-3.5 3 1 2.9 3-.1 3.8.3 4 1.9.2 1.7-.5 2.3-4 3-4 .9-4.3 1.2-4.3 4.4 0 4.4 2.3 6 6.5 4.4 1.7-.6 3.2-.7 3.6-.2.7 1.2 4.4 1.2 4.4 0 0-.5-.5-1.1-1.2-1.3-.7-.3-1.4-3.2-1.6-7.2-.4-6-.7-6.8-2.9-7.7-1.3-.5-2.5-.8-2.6-.8-.1.1-1.4.4-2.9.6zm5 11.5c-.4 3.1-5.8 4-5.8.9 0-2 1.2-2.9 4.3-3 1.4-.1 1.8.5 1.5 2.1zm64.1-11c-5.2 1.7-6.6 10.2-2.4 14.4 2 2 3.3 2.5 6.7 2.2 2.3-.2 4.3-.9 4.6-1.6.3-1-.4-1.2-2.9-.7-3.8.6-5.1 0-6.8-3.3-1.1-2.2-1.1-2.2 4.4-2.2 5.1 0 5.5-.2 5.5-2.3 0-2.8-2.4-6.3-4.7-6.9-1-.3-3-.1-4.4.4zm5.1 3.8c1 1.8.8 2-2.5 2-2.2 0-3.5-.5-3.5-1.3 0-3.3 4.4-3.7 6-.7zm116.8-4.2c-4.3.5-3.5 2.9 1 2.8 3.1-.1 3.7.2 4 2.1.3 2-.1 2.3-2.7 2.3-3 0-7.1 2.9-7.1 5.1 0 4.2 4.7 6.2 9.1 3.9 1.3-.7 1.9-.7 1.9 0 0 .5 1.1 1 2.5 1 2.9 0 3.1-.6 1-2.6-.9-1-1.5-3.5-1.5-6.7 0-2.9-.4-5.7-.8-6.3-.9-1.4-3.9-2-7.4-1.6zm5 11.4c-.4 3.1-5.8 4-5.8 1 0-2.5.8-3.2 3.7-3.2 2 0 2.4.5 2.1 2.2zm25.6-11c-5.6 1.4-7.3 10-2.9 14.3 2.9 3 10.5 3.6 10.5.9 0-1.2-.6-1.5-2.3-1-3.6.9-6.7-1.9-6.7-5.9 0-4.3 2.4-6.8 6.2-6.3 1.7.3 2.8 0 2.8-.8 0-1.6-3.8-2.2-7.6-1.2zm-398.4.9c0 .6 1 4.4 2.2 8.5 2.8 9.6 4.7 10 7.3 1.1l1.8-6.2 1.9 6.3c2.7 8.5 4.3 8 7.9-2.6 2.4-7.1 2.6-8.3 1.2-8-.9.2-2.3 2.4-3.2 5-.9 2.6-1.9 5-2.3 5.3-.3.4-1.2-1.9-1.9-4.9-1.7-7.7-4.1-7.7-6.5-.1-1 3-2.1 5.2-2.5 5-.4-.3-1.2-2.7-1.9-5.5-.7-3-1.7-5-2.6-5-.8 0-1.4.5-1.4 1.1zm204 7.4c0 6.9.3 8.5 1.5 8.5s1.5-1.6 1.5-8.5-.3-8.5-1.5-8.5-1.5 1.6-1.5 8.5zm497 14c0 10.4.2 12.5 1.5 12.5 1.1 0 1.5-1.2 1.5-4.9 0-6 .6-7.8 3.2-9.2 3.3-1.8 4.8.5 4.8 7.7 0 5 .3 6.4 1.5 6.4s1.5-1.5 1.5-7.5c0-6.8-.2-7.6-2.5-9.1-2.2-1.4-2.7-1.4-5.5-.1l-3 1.5v-4.9c0-3.7-.4-4.9-1.5-4.9-1.3 0-1.5 2.1-1.5 12.5zm60 0c0 10.4.2 12.5 1.5 12.5 1.2 0 1.5-1.3 1.5-6 0-5.3.3-6.1 2.6-7.7 2.5-1.6 2.7-1.6 4 .2.8 1.1 1.4 4.3 1.4 7.7 0 4.5.3 5.8 1.5 5.8s1.5-1.4 1.5-6.8c0-9.2-2.9-12.5-8.4-9.7l-2.6 1.4v-5c0-3.7-.4-4.9-1.5-4.9-1.3 0-1.5 2.1-1.5 12.5zm53-8.1c0 4.4 0 4.4-2.8 3.7-5.6-1.7-9.2 1.7-9.2 8.6 0 6.9 4.6 10.2 10.1 7.3 1.3-.7 1.9-.7 1.9 0 0 .5.7 1 1.5 1 1.3 0 1.5-2.1 1.5-12.5s-.2-12.5-1.5-12.5c-1.1 0-1.5 1.2-1.5 4.4zm-1.2 6.8c.7.7 1.2 2.8 1.2 4.8 0 4.1-1.4 6-4.7 6-2.4 0-4.3-2.6-4.3-6 0-5.1 4.7-7.9 7.8-4.8zm31.2-6.7c0 4.2-.1 4.4-2.2 3.6-3.2-1.2-7.3.5-8.7 3.5-1.6 3.5-1.4 8.6.5 11.2 1.7 2.5 7.1 3.1 9.2 1 .9-.9 1.2-.9 1.2 0 0 .7.7 1.2 1.5 1.2 1.3 0 1.5-2.1 1.5-12.5s-.2-12.5-1.5-12.5c-1.1 0-1.5 1.2-1.5 4.5zm-1.2 6.7c.7.7 1.2 2.8 1.2 4.8 0 4.2-1.4 6-4.7 6-4 0-5.3-6.7-2.1-10.8 1.3-1.5 4-1.6 5.6 0zm265.5-9.1c-3.6 1.1-4.4 2.9-1.3 2.9 1.8 0 2 .7 2 8.5s-.2 8.5-2 8.5c-1.1 0-2 .7-2 1.5 0 1.2 1.3 1.5 6 1.5s6-.3 6-1.5c0-.8-.9-1.5-2-1.5-1.9 0-2-.7-2-10.5 0-5.8-.3-10.5-.7-10.4-.5 0-2.3.5-4 1zm27.3 1.2c-4.2 4.2-4.2 15.1 0 19.8 2.3 2.5 7.6 2.5 9.9-.1 2-2.2 3.2-11.1 2.1-15.5-1.6-6.2-7.8-8.4-12-4.2zm8.4 3.3c1.3 3.3 1.3 9.5 0 12.9-2.6 6.9-8 2.7-8-6.2 0-6.7 1.3-9.3 4.6-9.3 1.7 0 2.7.8 3.4 2.6zm25.1-4.7c-3.1.8-4 3.1-1.2 3.1 2 0 2.1.6 2.1 8.5 0 7.8-.2 8.5-2 8.5-1.1 0-2 .7-2 1.5 0 1.2 1.3 1.5 6 1.5s6-.3 6-1.5c0-.9-.9-1.5-2.5-1.5h-2.5v-10.5c0-5.8-.3-10.5-.7-10.4-.5.1-1.9.4-3.2.8zM629 250.5c0 9.6.3 11.5 1.5 11.5s1.5-1.9 1.5-11.5-.3-11.5-1.5-11.5-1.5 1.9-1.5 11.5zm258-10c0 .8.7 1.5 1.5 1.5s1.5-.7 1.5-1.5-.7-1.5-1.5-1.5-1.5.7-1.5 1.5zm73 0c0 .8.7 1.5 1.5 1.5s1.5-.7 1.5-1.5-.7-1.5-1.5-1.5-1.5.7-1.5 1.5zm29 0c0 .8.7 1.5 1.5 1.5s1.5-.7 1.5-1.5-.7-1.5-1.5-1.5-1.5.7-1.5 1.5zm-214.7 1.2c-.7.3-1.3 1.1-1.3 1.8s-.6 1.6-1.2 1.9c-1 .5-1 .7 0 1.2.7.3 1.2 2.6 1.2 6 0 7.1 1.2 9.4 5 9.4 3.6 0 3.9-1.1.8-2.5-2-.9-2.3-1.8-2.3-6.5 0-4.9.2-5.5 2.3-5.8 2.8-.4 2.9-2.2.2-2.2-1.1 0-2.4-.8-2.8-1.8-.4-1.1-1.3-1.7-1.9-1.5zm22 0c-.7.3-1.3 1.1-1.3 1.8s-.6 1.6-1.2 1.9c-1 .5-1 .7 0 1.2.7.3 1.2 2.6 1.2 6 0 7.1 1.2 9.4 5 9.4 3.6 0 3.9-1.1.8-2.5-2-.9-2.3-1.8-2.3-6.5 0-4.9.2-5.5 2.3-5.8 2.8-.4 2.9-2.2.2-2.2-1.1 0-2.4-.8-2.8-1.8-.4-1.1-1.3-1.7-1.9-1.5zm60 0c-.7.3-1.3 1.1-1.3 1.8s-.6 1.6-1.2 1.9c-1 .5-1 .7 0 1.2.8.4 1.2 2.8 1.2 6.8 0 6.7 1 8.6 4.7 8.6 2.8 0 3-1.1.3-2.8-1.6-1-2-2.3-2-6.7 0-5.2.1-5.5 2.5-5.5 1.4 0 2.5-.5 2.5-1 0-.6-1.1-1-2.4-1-1.6 0-2.6-.6-2.8-1.8-.2-1.1-.9-1.7-1.5-1.5zm143 0c-.7.3-1.3 1.1-1.3 1.8s-.6 1.6-1.2 1.9c-1 .5-1 .7 0 1.2.8.4 1.2 2.8 1.2 6.8 0 6.7 1 8.6 4.7 8.6 2.8 0 3-1.1.3-2.8-1.6-1-2-2.3-2-6.7 0-5.2.1-5.5 2.5-5.5 1.4 0 2.5-.5 2.5-1 0-.6-1.1-1-2.4-1-1.6 0-2.6-.6-2.8-1.8-.2-1.1-.9-1.7-1.5-1.5zm-355.1 3.9c-1.8.7-3.2.9-3.2.4 0-.6-.7-1-1.5-1-1.2 0-1.5 1.6-1.5 8.5s.3 8.5 1.5 8.5c1.1 0 1.5-1.3 1.5-5.3 0-4.4.4-5.8 2.4-7.7 4.1-3.8 5.6-2.2 5.6 6 0 5.6.3 7 1.5 7s1.5-1.5 1.5-7.3c0-9.8-1.7-11.7-7.8-9.1zm18.3-.4c-1.7.4-3.6 1.5-4.2 2.5-2 2.7-1.6 8.7.8 11.7 1.8 2.3 2.8 2.7 6.2 2.4 2.3-.2 4.2-.9 4.5-1.7.3-1-.2-1.2-2.2-.7-3.8.9-8.1-3.4-7.1-7.2 1-4 2.4-5.2 6.1-5.2 1.9 0 3.4-.4 3.4-.9 0-1.3-4.1-1.8-7.5-.9zm17.7.4c-1.2.8-2.2 1-2.2.5 0-.6-.7-1.1-1.5-1.1-1.2 0-1.5 1.6-1.5 8.5s.3 8.5 1.5 8.5 1.5-1.3 1.5-5.8c0-5.9 1.8-9.2 4.8-9.2.7 0 1.2-.7 1.2-1.5 0-1.9-1-1.9-3.8.1zm10.6-.2c-3.7 1.9-5.3 6.1-3.9 10.7.7 2.1 2.1 4.4 3.2 4.9 2.7 1.5 9.1.9 9.7-.9.4-1.1-.2-1.2-2.3-.7-3.1.8-7.5-1.5-7.5-3.9 0-1.1 1.3-1.5 5-1.5 4.5 0 5-.2 5-2.3 0-5.1-4.8-8.5-9.2-6.3zm5 2.8c2 2 1.4 2.8-2.3 2.8-1.9 0-3.5-.4-3.5-.8 0-1.2 2.2-3.2 3.5-3.2.6 0 1.6.5 2.3 1.2zm15.8-2.7c-1.4.8-2.6 1-2.6.4 0-.5-.7-.9-1.5-.9-1.2 0-1.5 1.6-1.5 8.5s.3 8.5 1.5 8.5 1.5-1.3 1.5-5.8c0-6.4 2.2-9.8 5.4-8.6 1.3.5 1.6 2 1.6 7.5s.3 6.9 1.5 6.9 1.5-1.3 1.5-6c0-5.2.3-6.2 2.5-7.6 1.3-.8 2.9-1.3 3.5-.9.5.3 1 3.7 1 7.6 0 6.2.2 6.9 2 6.9s2-.7 2-5.9c0-10.2-2.7-13.5-8.6-10.5-1.5.8-3 1.1-3.3.6-1.2-1.7-3.9-2-6.5-.7zm27.3-.3c-5.2 1.7-6.6 10.2-2.4 14.4 2 2 3.3 2.5 6.7 2.2 2.3-.2 4.3-.9 4.6-1.6.3-1-.4-1.2-2.9-.7-3.8.6-5.1 0-6.8-3.3-1.1-2.2-1.1-2.2 4.4-2.2 5.1 0 5.5-.2 5.5-2.3 0-2.8-2.4-6.3-4.7-6.9-1-.3-3-.1-4.4.4zm5.1 3.8c1 1.8.8 2-2.5 2-2.2 0-3.5-.5-3.5-1.3 0-3.3 4.4-3.7 6-.7zm14.8-3.6c-1.6.8-2.8 1.1-2.8.5 0-.5-.7-.9-1.5-.9-1.2 0-1.5 1.6-1.5 8.5s.3 8.5 1.5 8.5c1.1 0 1.5-1.2 1.5-4.9 0-6 .6-7.8 3.2-9.2 3.3-1.8 4.8.5 4.8 7.7 0 5 .3 6.4 1.5 6.4s1.5-1.5 1.5-7.4c0-6.6-.3-7.7-2.2-9-2.7-1.9-2.6-1.9-6-.2zm72.5-.6c-5.2.8-7.1 9.6-3.2 14.6 1.8 2.3 2.7 2.7 6.7 2.4 2.6-.2 4.7-.8 5-1.6.3-1-.4-1.2-3.1-.7-2.8.6-3.9.3-5.6-1.4-3.3-3.3-2.5-4.1 3.4-4.1 6 0 6.2-.3 4.1-5.4-1.4-3.4-3.4-4.4-7.3-3.8zm4.5 4.4c.3 1.5-.4 1.8-3.3 1.8-3.3 0-3.5-.2-2.5-2.1 1.4-2.4 5.3-2.2 5.8.3zm66-3.8c-1.6.8-2.8 1.1-2.8.5 0-.5-.7-.9-1.5-.9-1.2 0-1.5 1.6-1.5 8.5s.3 8.5 1.5 8.5 1.5-1.3 1.5-6c0-5.7.2-6.2 3-7.8 1.6-.9 3-2.3 3-3 0-1.5.1-1.5-3.2.2zm70.1 0c-4.4 2.2-5.6 12.3-1.7 14.8 2 1.2 7.2 1 8.6-.4 1.9-1.9 1.5 1.3-.4 4.1-1.4 2-2.2 2.2-5.5 1.7-3.1-.5-3.9-.3-3.9.9 0 1.1 1.2 1.5 4.8 1.5 2.6 0 5.2-.4 5.8-.8 2.4-1.6 3.4-5.5 3.4-13.8s-.1-8.6-2.1-8.1c-1.2.3-3.1.2-4.4-.3-1.4-.5-3.1-.4-4.6.4zm6.9 2.8c1.6 1.6 1.5 7.3 0 8.5-4 3.1-7.8 1.4-7.8-3.3 0-5.4 4.5-8.5 7.8-5.2zm-91.8 5.3c0 6.9.3 8.5 1.5 8.5s1.5-1.6 1.5-8.5-.3-8.5-1.5-8.5-1.5 1.6-1.5 8.5zm73 0c0 6.9.3 8.5 1.5 8.5s1.5-1.6 1.5-8.5-.3-8.5-1.5-8.5-1.5 1.6-1.5 8.5zm29 0c0 6.9.3 8.5 1.5 8.5s1.5-1.6 1.5-8.5-.3-8.5-1.5-8.5-1.5 1.6-1.5 8.5zM37 267.3v12.3l5.5.2c7.3.2 9.5-1.8 9.5-8.6 0-5.5-.6-6.7-4.1-8.1-1.9-.7-3.4-.6-5.3.4l-2.6 1.4v-5c0-3.7-.4-4.9-1.5-4.9-1.3 0-1.5 2-1.5 12.3zm10.4-.7c2.3 2.2 2 7.7-.4 9.9-1.7 1.5-2.4 1.6-4.5.7-3.4-1.6-3.6-8.3-.3-10.6 2.8-2 3.3-2 5.2 0zm61.8-10.4c-.7.7-1.2 2.2-1.2 3.5 0 1.2-.8 2.7-1.7 3.3-1.7 1-1.7 1 0 2 1.3.9 1.7 2.5 1.7 8 0 5.6.3 7 1.5 7s1.5-1.5 1.5-7.5V265h7v7.5c0 6.8.2 7.5 2 7.5s2-.7 2-8.5V263h-5.6c-5.4 0-5.5 0-5.2-2.8.2-2.2.8-2.7 3.1-2.7 1.5.1 2.7-.5 2.7-1.2 0-1.7-6.2-1.7-7.8-.1zM484 267.5c0 10.4.2 12.5 1.5 12.5s1.5-2.1 1.5-12.5-.2-12.5-1.5-12.5-1.5 2.1-1.5 12.5z"/><path d="M118 258.5c0 .8.9 1.5 2 1.5s2-.7 2-1.5-.9-1.5-2-1.5-2 .7-2 1.5zm1111 1.5c0 1.3.7 2 2 2s2-.7 2-2-.7-2-2-2-2 .7-2 2zm31 0c0 1.3.7 2 2 2s2-.7 2-2-.7-2-2-2-2 .7-2 2zM81.3 262.8c-4.8.8-7.1 9.2-3.7 14 1.7 2.5 7.1 3.1 9.2 1 .9-.9 1.2-.7 1.2.9 0 3.7-2.8 5.6-7.2 4.9-3-.5-3.8-.3-3.8.9 0 2.4 9.5 2 12-.5 1.7-1.7 2-3.3 2-11.4v-9.5l-2.9.1c-1.5.1-3.2-.1-3.7-.4-.5-.2-1.9-.2-3.1 0zm5.5 3.4c1.6 1.6 1.5 7.3 0 8.5-4.1 3.2-7.8 1.4-7.8-3.7 0-4.8 4.8-7.8 7.8-4.8zm64.1-3c-5.2 1.7-6.6 10.2-2.4 14.4 2 2 3.3 2.5 6.7 2.2 2.3-.2 4.3-.9 4.6-1.6.3-1-.4-1.2-2.9-.7-3.8.6-5.1 0-6.8-3.3-1.1-2.2-1.1-2.2 4.4-2.2 5.1 0 5.5-.2 5.5-2.3 0-2.8-2.4-6.3-4.7-6.9-1-.3-3-.1-4.4.4zm5.1 3.8c1 1.8.8 2-2.5 2-2.2 0-3.5-.5-3.5-1.3 0-3.3 4.4-3.7 6-.7zm12-3.7c-1.5.8-2.6 2.3-2.8 3.9-.3 2.1.4 3 3.7 4.9 2.3 1.2 4.1 2.6 4.1 3 0 1.6-3 2.9-5.4 2.3-2-.5-2.6-.2-2.6 1s1 1.6 3.6 1.6c4.7 0 7.4-1.6 7.4-4.3 0-3-.9-4.1-4.8-6.1-4-2.1-3.7-4.1.6-4.1 1.9 0 3.2-.5 3.2-1.2s-.4-1.3-.9-1.3-1.5-.2-2.3-.5c-.7-.3-2.4.1-3.8.8zm290.8.1c-1.6.8-2.8 1.1-2.8.5 0-.5-.7-.9-1.5-.9-1.2 0-1.5 1.6-1.5 8.5s.3 8.5 1.5 8.5 1.5-1.3 1.5-6c0-5.7.2-6.2 3-7.8 1.6-.9 3-2.3 3-3 0-1.5.1-1.5-3.2.2zm11.5-.6c-5.2.8-7.1 9.6-3.2 14.6 1.8 2.3 2.7 2.7 6.7 2.4 2.6-.2 4.7-.8 5-1.6.3-1-.4-1.2-3.1-.7-2.8.6-3.9.3-5.6-1.4-3.3-3.3-2.5-4.1 3.4-4.1 6 0 6.2-.3 4.1-5.4-1.4-3.4-3.4-4.4-7.3-3.8zm4.5 4.4c.3 1.5-.4 1.8-3.3 1.8-3.3 0-3.5-.2-2.5-2.1 1.4-2.4 5.3-2.2 5.8.3zm22.1-4c-5.2 1.7-6.6 10.2-2.4 14.4 2 2 3.3 2.5 6.7 2.2 2.3-.2 4.3-.9 4.6-1.6.3-1-.4-1.2-2.9-.7-3.8.6-5.1 0-6.8-3.3-1.1-2.2-1.1-2.2 4.4-2.2 5.1 0 5.5-.2 5.5-2.3 0-2.8-2.4-6.3-4.7-6.9-1-.3-3-.1-4.4.4zm5.1 3.8c1 1.8.8 2-2.5 2-2.2 0-3.5-.5-3.5-1.3 0-3.3 4.4-3.7 6-.7zm11.8-4.3c-4.3.7-3.5 3 1 2.9 3-.1 3.8.3 4 1.9.2 1.7-.5 2.3-4 3-4 .9-4.3 1.2-4.3 4.4 0 4.4 2.3 6 6.5 4.4 1.7-.6 3.2-.7 3.6-.2.7 1.2 4.4 1.2 4.4 0 0-.5-.5-1.1-1.2-1.3-.7-.3-1.4-3.2-1.6-7.2-.4-6-.7-6.8-2.9-7.7-1.3-.5-2.5-.8-2.6-.8-.1.1-1.4.4-2.9.6zm5 11.5c-.4 3.1-5.8 4-5.8.9 0-2 1.2-2.9 4.3-3 1.4-.1 1.8.5 1.5 2.1zm12.6-11.2c-4.6 1.8-3.7 6.8 1.6 9.5 1.7.9 3 2.2 3 3 0 1.9-3.5 2.8-6.1 1.5-1.8-1-2-.9-1.7.7.2 1.3 1.4 1.9 4.5 2.1 3.5.3 4.4-.1 5.8-2.1 2-3.1 1.2-5.1-3.1-7.6-4.3-2.6-4.5-5.1-.4-5.1 1.7 0 3-.5 3-1 0-.6-.4-1-.9-1s-1.5-.2-2.3-.4c-.7-.3-2.2-.1-3.4.4zm17.9-.2c-5.2.8-7.1 9.6-3.2 14.6 1.8 2.3 2.7 2.7 6.7 2.4 2.6-.2 4.7-.8 5-1.6.3-1-.4-1.2-3.1-.7-2.8.6-3.9.3-5.6-1.4-3.3-3.3-2.5-4.1 3.4-4.1 6 0 6.2-.3 4.1-5.4-1.4-3.4-3.4-4.4-7.3-3.8zm4.5 4.4c.3 1.5-.4 1.8-3.3 1.8-3.3 0-3.5-.2-2.5-2.1 1.4-2.4 5.3-2.2 5.8.3zM57 269.6c0 3.6.5 7.4 1 8.5 1.2 2.2 5.9 2.6 7.9.6 1.1-1 1.4-1 1.8 0 .3.7 1.1 1.3 1.9 1.3 1.1 0 1.4-1.8 1.4-8.5 0-6.9-.3-8.5-1.5-8.5-1.1 0-1.5 1.3-1.5 5.3 0 5.9-2.2 9.2-5.7 8.5-1.5-.3-1.9-1.5-2.1-7.1-.2-5.1-.6-6.7-1.7-6.7-1.2 0-1.5 1.5-1.5 6.6zm70-6c0 .3 1.2 2.1 2.6 4l2.7 3.5-3.2 4.4c-2.7 3.8-3 4.5-1.4 4.5 1 0 2.7-1.4 3.8-3 1.1-1.6 2.3-3 2.7-3 .4 0 1.6 1.3 2.8 3 1.2 1.6 3 3 4.1 3 1.8 0 1.7-.4-1.1-4.4l-3.2-4.4 2.6-3.9c3.3-4.8 1.4-5.9-2.3-1.4l-2.6 3.1-2-3c-1.7-2.5-5.5-4.2-5.5-2.4zm-37 65.9c0 10.4.2 12.5 1.5 12.5 1.1 0 1.5-1.1 1.5-4.3v-4.2l3.6 4.2c2 2.4 4.4 4.3 5.5 4.3 2.7 0 2.4-1.2-1.6-5-1.9-1.9-3.5-3.7-3.5-4.2 0-.4 1.4-2.3 3.1-4.3 2.8-3.1 2.9-3.5 1.1-3.5-1.1 0-3.4 1.7-5.1 3.7l-3 3.8-.1-7.8c0-6.2-.3-7.7-1.5-7.7-1.3 0-1.5 2.1-1.5 12.5zm84-8c0 4.3-.1 4.4-2.3 3.6-5.2-2-10.5 4-9.3 10.5.4 1.8 1.4 4 2.2 4.9 1.8 1.8 6.5 2 8.2.3.9-.9 1.2-.9 1.2 0 0 .7.9 1.2 2 1.2 1.9 0 2-.7 2-12.5s-.1-12.5-2-12.5c-1.7 0-2 .7-2 4.5zm-1.6 6.1c1.1.4 1.6 1.9 1.6 4.9 0 4.8-1.7 6.8-5.2 6.3-1.9-.2-2.3-1-2.6-4.6-.4-6 1.7-8.3 6.2-6.6zm146.6 1.7v12.3l5.5.2c4.7.1 5.7-.2 7.5-2.5 3.7-4.7 2-13.3-2.9-14.6-1.1-.2-3.1.1-4.5.9l-2.6 1.3v-5c0-3.7-.4-4.9-1.5-4.9-1.3 0-1.5 2-1.5 12.3zm10.4-.7c2.2 2.1 2 6.7-.3 9.5-1.6 2.1-2.2 2.2-4.5 1.1-2.2-1-2.6-1.8-2.6-5.1 0-3 .6-4.4 2.2-5.5 2.8-2 3.3-2 5.2 0zm9.6.9c0 10.4.2 12.5 1.5 12.5s1.5-2.1 1.5-12.5-.2-12.5-1.5-12.5-1.5 2.1-1.5 12.5zm468 0c0 10.4.2 12.5 1.5 12.5 1.2 0 1.5-1.3 1.5-5.5s.5-6 2-7.5c4.3-4.3 6-2.2 6 7.1 0 4.6.3 5.9 1.5 5.9s1.5-1.5 1.5-7.4c0-6.4-.3-7.7-2.1-8.9-2-1.5-5.3-1.2-7.6.6-1 .7-1.3-.2-1.3-4.2 0-3.9-.4-5.1-1.5-5.1-1.3 0-1.5 2.1-1.5 12.5zm98-8.2v4.2l-4.4-.3c-3.6-.3-4.6 0-6 1.9-2 3-2.1 9.8 0 12.7 1.6 2.4 5.3 2.9 8.5 1.2 1.3-.7 1.9-.7 1.9 0 0 .5.7 1 1.5 1 1.3 0 1.5-2.1 1.5-12.5s-.2-12.5-1.5-12.5c-1.1 0-1.5 1.1-1.5 4.3zm-1.2 6.9c.7.7 1.2 2.8 1.2 4.8 0 4.1-1.4 6-4.5 6-1.2 0-2.6-.5-3.3-1.2-1.5-1.5-1.6-6.3-.2-8.9 1.2-2.1 5-2.5 6.8-.7zm21.2-6.9v4.2l-4.4-.3c-3.6-.3-4.6 0-6 1.9-2 3-2.1 9.8 0 12.7 1.6 2.4 5.3 2.9 8.5 1.2 1.3-.7 1.9-.7 1.9 0 0 .5.7 1 1.5 1 1.3 0 1.5-2.1 1.5-12.5s-.2-12.5-1.5-12.5c-1.1 0-1.5 1.1-1.5 4.3zm-1.2 6.9c.7.7 1.2 2.8 1.2 4.8 0 4.1-1.4 6-4.5 6-1.2 0-2.6-.5-3.3-1.2-1.5-1.5-1.6-6.3-.2-8.9 1.2-2.1 5-2.5 6.8-.7zm10.2 1.3c0 10.4.2 12.5 1.5 12.5s1.5-2.1 1.5-12.5-.2-12.5-1.5-12.5-1.5 2.1-1.5 12.5zm48-8c0 4.3-.1 4.4-2.3 3.6-5.2-2-10.5 4-9.3 10.5.4 1.8 1.4 4 2.2 4.9 1.8 1.8 6.5 2 8.2.3.9-.9 1.2-.9 1.2 0 0 .7.9 1.2 2 1.2 1.9 0 2-.7 2-12.5s-.1-12.5-2-12.5c-1.7 0-2 .7-2 4.5zm-1.6 6.1c1.1.4 1.6 1.9 1.6 4.9 0 4.8-1.7 6.8-5.2 6.3-1.9-.2-2.3-1-2.6-4.6-.4-6 1.7-8.3 6.2-6.6zm120.6-6c0 4.2-.1 4.5-2.2 3.9-2.5-.8-2.5-.8-5-.6-4.5.3-6.8 11.3-3.2 15.2 1.9 2.1 5.5 2.5 8.5.9 1.3-.7 1.9-.7 1.9 0 0 .5.7 1 1.5 1 1.3 0 1.5-2.1 1.5-12.5s-.2-12.5-1.5-12.5c-1.1 0-1.5 1.2-1.5 4.6zm-1.9 6.4c1.4.8 1.9 2.1 1.9 5 0 4.1-1.8 6-5.8 6-2.2 0-3.2-1.8-3.2-5.6 0-5.5 2.9-7.6 7.1-5.4zM37 330.5V342h4.8c6 0 9.2-2.1 9.2-6 0-2.1-.8-3.5-2.5-4.6-2.5-1.7-2.5-1.7-.5-3.1 2.6-1.9 2.7-6.9.1-8.3-1.1-.5-4-1-6.5-1H37v11.5zm8.4-7.9c2.1 2.1 2 3-.6 4.8-3.7 2.6-4.8 2-4.8-2.4 0-3.3.3-4 1.9-4 1.1 0 2.7.7 3.5 1.6zm0 9.7c1.1.8 1.7 2.3 1.4 3.8-.2 1.9-1 2.5-3.5 2.7-3.2.3-3.3.2-3.3-3.7 0-3.3.4-4.1 1.8-4.1 1 0 2.6.6 3.6 1.3zM310 320.5c0 .8.7 1.5 1.5 1.5s1.5-.7 1.5-1.5-.7-1.5-1.5-1.5-1.5.7-1.5 1.5zm143 10c0 9.6.3 11.5 1.5 11.5s1.5-1.7 1.6-8.8v-8.7l2.8 7.5c3.8 10.4 5.8 10.6 9 1 1.4-3.9 2.8-7.3 3.3-7.6.4-.3.8 3.3.8 8 0 7 .3 8.6 1.5 8.6s1.5-1.9 1.5-11.5c0-11.5 0-11.5-2.4-11.5-2.1 0-2.7 1-5.2 8-1.6 4.4-3.1 8-3.5 8-.3 0-1.8-3.6-3.3-8-2.5-7-3.1-8-5.2-8-2.4 0-2.4 0-2.4 11.5zm28-10c0 .8.7 1.5 1.5 1.5s1.5-.7 1.5-1.5-.7-1.5-1.5-1.5-1.5.7-1.5 1.5zm148 10c0 9.6.3 11.5 1.5 11.5s1.5-1.9 1.5-11.5-.3-11.5-1.5-11.5-1.5 1.9-1.5 11.5zm256-10c0 .8.7 1.5 1.5 1.5s1.5-.7 1.5-1.5-.7-1.5-1.5-1.5-1.5.7-1.5 1.5zm107 0c0 .8.7 1.5 1.5 1.5s1.5-.7 1.5-1.5-.7-1.5-1.5-1.5-1.5.7-1.5 1.5zm29 0c0 .8.7 1.5 1.5 1.5s1.5-.7 1.5-1.5-.7-1.5-1.5-1.5-1.5.7-1.5 1.5zm-723.8 3.6c-1 1.5-1.1 2.4-.3 3.2.6.6 1.1 3.6 1.1 6.7 0 6.1 1.1 8 4.7 8 2.8 0 3-1.6.3-2.3-1.7-.4-2-1.4-2-6.6 0-5.4.2-6.1 2-6.1 1.1 0 2-.5 2-1 0-.6-.9-1-2-1s-2-.7-2-1.5c0-2.2-2.3-1.8-3.8.6zm475.8-.7c0 .8-.6 1.7-1.2 2-1 .5-1 .7 0 1.2.7.3 1.2 2.6 1.2 6 0 7.1 1.2 9.4 5 9.4 3.6 0 3.9-1.1.8-2.5-2-.9-2.3-1.8-2.3-6.5 0-4.9.2-5.5 2.3-5.8 2.8-.4 2.9-2.2.2-2.2-1.1 0-2.3-.7-2.6-1.5-.8-1.9-3.4-2-3.4-.1zm22 0c0 .8-.6 1.7-1.2 2-1 .5-1 .7 0 1.2.7.3 1.2 2.6 1.2 6 0 7.1 1.2 9.4 5 9.4 3.6 0 3.9-1.1.8-2.5-2-.9-2.3-1.8-2.3-6.5 0-4.9.2-5.5 2.3-5.8 2.8-.4 2.9-2.2.2-2.2-1.1 0-2.3-.7-2.6-1.5-.8-1.9-3.4-2-3.4-.1zm235 0c0 .8-.6 1.7-1.2 2-1 .5-1 .7 0 1.2.7.3 1.2 2.6 1.2 6 0 7.1 1.2 9.4 5 9.4 3.6 0 3.9-1.1.8-2.5-2-.9-2.3-1.8-2.3-6.5 0-4.9.2-5.5 2.3-5.8 2.8-.4 2.9-2.2.2-2.2-1.1 0-2.3-.7-2.6-1.5-.8-1.9-3.4-2-3.4-.1zm-971.2 1.4c-1.6.2-2.8 1-2.8 1.7 0 1.1.8 1.3 3.1.8 2.1-.4 3.4-.1 4 .8 1.6 2.5 1 3.9-1.9 3.9-5.6 0-9.3 5.5-6 8.8 1.6 1.6 6 1.5 7.7-.1 1.1-1 1.4-1 1.8 0 .3.7 1.3 1.3 2.4 1.3 2 0 2.6-1.5.9-2.5-.5-.3-1-3.2-1-6.4 0-7.2-1.9-9.1-8.2-8.3zm5 11.4c-.3 2.5-4.3 3.7-6.1 1.9-1.5-1.5 1-4.1 4-4.1 2 0 2.4.4 2.1 2.2zm13.7-11c-1.7.4-3.6 1.5-4.2 2.5-2 2.7-1.6 8.7.8 11.7 1.8 2.3 2.8 2.7 6.2 2.4 2.3-.2 4.2-.9 4.5-1.7.3-1-.2-1.2-2.2-.7s-3.2.1-5.1-1.8c-4.5-4.5-2.1-10.6 4.1-10.6 1.9 0 3.4-.4 3.4-.9 0-1.3-4.1-1.8-7.5-.9zm58.3-.4c-4.3.5-3.5 2.9 1 2.8 3.1-.1 3.7.2 4 2.1.3 2-.1 2.3-2.7 2.3-3 0-7.1 2.9-7.1 5.1 0 4.2 4.7 6.2 9.1 3.9 1.3-.7 1.9-.7 1.9 0 0 .5 1.1 1 2.5 1 2.7 0 3.4-1.5 1-2.4-1.1-.4-1.5-2.1-1.5-6.3 0-3.2-.4-6.3-.8-6.9-.9-1.4-3.9-2-7.4-1.6zm5 11.4c-.4 3.1-5.8 4-5.8 1 0-2.5.8-3.2 3.7-3.2 2 0 2.4.5 2.1 2.2zm15.4-10.6c-1.2.8-2.2 1-2.2.5 0-.6-.7-1.1-1.5-1.1-1.2 0-1.5 1.6-1.5 8.5s.3 8.5 1.5 8.5 1.5-1.3 1.5-5.8c0-5.9 1.8-9.2 4.8-9.2.7 0 1.2-.7 1.2-1.5 0-1.9-1-1.9-3.8.1zm42-.9c-5.3 1-7.3 10.4-3.1 14.9 1.9 2 3.1 2.4 6.3 2.2 5.1-.4 6.1-2.6 1-2.5-2.5.1-4.1-.5-5-1.8-3.1-4.3-.4-10.5 4.7-10.5 1.6 0 2.9-.5 2.9-1 0-.6-.4-1-.9-1s-1.5-.2-2.3-.4c-.7-.2-2.3-.1-3.6.1zm16.2.4c-5.3 1.5-7.2 9.4-3.3 14.3 1.6 2 2.9 2.6 5.9 2.6 3 0 4.3-.6 5.9-2.6 2.2-2.8 2.8-8.3 1.1-11.4-1.3-2.5-5.9-3.8-9.6-2.9zm5 2.5c2.4.9 3.1 6.9 1.2 9.9-3.1 4.7-8 2.3-8-4 0-5.2 2.7-7.5 6.8-5.9zm16.4-2.2c-1.6.8-2.8 1.1-2.8.5 0-.5-.7-.9-1.5-.9-1.2 0-1.5 1.6-1.5 8.5s.3 8.5 1.5 8.5 1.5-1.3 1.5-6c0-5.2.3-6.2 2.5-7.6 1.3-.8 2.9-1.3 3.5-.9.5.3 1 3.7 1 7.6 0 6.2.2 6.9 2 6.9s2-.7 2-5.8c0-4.6.4-6.3 2-7.7 3.3-3 5-.5 5 7.1 0 5 .3 6.4 1.5 6.4s1.5-1.5 1.5-7.3c0-3.9-.4-7.7-.8-8.3-1.3-1.9-3.9-2.3-6.7-.8-2.3 1.2-3 1.2-4.8-.1-2.6-1.8-2.6-1.8-5.9-.1zm29.8.2c-1.4.7-2.6.9-2.6.3 0-.5-.7-.9-1.5-.9-1.2 0-1.5 1.9-1.5 11.5s.3 11.5 1.5 11.5c1 0 1.5-1 1.5-3.4 0-3.4 0-3.4 3.8-2.9 3.4.4 4.2.1 6-2.2 3.9-4.9 2.3-13.5-2.7-14.8-1.1-.2-3.1.1-4.5.9zm4.8 3c2.2 2.1 2 6.7-.3 9.5-1.6 2.1-2.2 2.2-4.5 1.1-2.2-1-2.6-1.8-2.6-5.1 0-3 .6-4.4 2.2-5.5 2.8-2 3.3-2 5.2 0zm12.7-3.7c-4 1.1-3.6 2.8.6 2.7 3.1-.1 3.9.3 4.1 1.9.2 1.7-.5 2.3-4 3-4 .9-4.3 1.2-4.3 4.4 0 4.4 2.3 6 6.5 4.4 1.7-.6 3.2-.7 3.6-.2.7 1.2 4.4 1.2 4.4 0 0-.5-.5-1.1-1.2-1.3-.7-.3-1.4-3.2-1.6-7.2-.4-6-.7-6.8-2.9-7.7-1.3-.5-2.5-.9-2.6-.8-.1.1-1.3.4-2.6.8zm4.7 11.3c-.4 3.1-5.8 4-5.8.9 0-2 1.2-2.9 4.3-3 1.4-.1 1.8.5 1.5 2.1zm64.1-11c-5.2 1.8-6.6 10.2-2.4 14.4 2 2 3.3 2.5 6.7 2.2 2.3-.2 4.3-.9 4.6-1.6.3-1-.4-1.2-2.9-.7-3.8.6-5.1 0-6.8-3.3-1.1-2.2-1.1-2.2 4.4-2.2 6 0 6.8-1 4.2-5.9-1.5-3-4.4-4.1-7.8-2.9zm5.1 3.8c1 1.8.8 2-2.5 2-2.2 0-3.5-.5-3.5-1.3 0-3.3 4.4-3.7 6-.7zm138.6-3.5c-1.4.8-2.6 1-2.6.4 0-.5-.7-.9-1.5-.9-1.2 0-1.5 1.6-1.5 8.5s.3 8.5 1.5 8.5 1.5-1.3 1.5-6c0-5.3.3-6.1 2.6-7.7 2.5-1.6 2.7-1.6 4 .2.8 1.1 1.4 4.3 1.4 7.7 0 4.5.3 5.8 1.5 5.8s1.5-1.4 1.5-6.8c0-9.2-2.9-12.5-8.4-9.7zm18.6-.7c-5.3.8-7.4 11-3.2 15.2 2.1 2.1 6.9 2.6 10 1 2.4-1.3 4.1-6.4 3.4-10-1-4.6-4.9-7-10.2-6.2zm5.6 3.4c1.7 1.7 1.5 8.4-.4 10.2-4.6 4.7-9.8-3.1-6.4-9.5 1.2-2.1 5-2.5 6.8-.7zm14.9-2.7c-1.5.8-2.7 1-2.7.4 0-.5-.7-.9-1.5-.9-1.2 0-1.5 1.6-1.5 8.5s.3 8.5 1.5 8.5 1.5-1.3 1.5-5.5c0-5.7 2.2-9.5 5.5-9.5.8 0 1.5-.4 1.5-.9 0-1.8-1.6-2-4.3-.6zm109.7.1c-1.9 1-3 1.2-3.2.5-.2-.6-1-1.1-1.8-1.1-1.1 0-1.4 1.8-1.4 8.5 0 6.9.3 8.5 1.5 8.5 1.1 0 1.5-1.3 1.5-5.3 0-4.4.4-5.8 2.4-7.7 4.1-3.8 5.6-2.2 5.6 6 0 5.6.3 7 1.5 7s1.5-1.5 1.5-7.3c0-3.9-.4-7.7-.8-8.3-1.3-2-3.9-2.3-6.8-.8zm18.1-.4c-1.7.4-3.6 1.5-4.2 2.5-2 2.7-1.6 8.7.8 11.7 1.8 2.3 2.8 2.7 6.2 2.4 2.3-.2 4.2-.9 4.5-1.7.3-1-.2-1.2-2.2-.7s-3.2.1-5.1-1.8c-4.5-4.5-2.1-10.6 4.1-10.6 1.9 0 3.4-.4 3.4-.9 0-1.3-4.1-1.8-7.5-.9zm17.7.4c-1.2.8-2.2 1-2.2.5 0-.6-.7-1.1-1.5-1.1-1.2 0-1.5 1.6-1.5 8.5s.3 8.5 1.5 8.5 1.5-1.3 1.5-5.8c0-5.9 1.8-9.2 4.8-9.2.7 0 1.2-.7 1.2-1.5 0-1.9-1-1.9-3.8.1zm10.6-.2c-1.2.6-2.9 2.4-3.7 4-1.8 3.7-.1 9.7 3.2 11.5 2.9 1.6 8.9 1.1 9.5-.8.3-1-.3-1.1-2.7-.6-2.4.5-3.7.2-5.2-1.1-3.3-3-2.4-4.4 3.1-4.4 4.5 0 5-.2 5-2.3 0-5.1-4.8-8.5-9.2-6.3zm5 2.8c2 2 1.4 2.8-2.3 2.8-1.9 0-3.5-.4-3.5-.8 0-1.2 2.2-3.2 3.5-3.2.6 0 1.6.5 2.3 1.2zm15.8-2.7c-1.4.8-2.6 1-2.6.4 0-.5-.7-.9-1.5-.9-1.2 0-1.5 1.6-1.5 8.5s.3 8.5 1.5 8.5 1.5-1.3 1.5-5.8c0-4.6.4-6.3 2-7.7 3.5-3.2 5-1.3 5 6.5 0 5.6.3 7 1.5 7s1.5-1.3 1.5-6c0-5.2.3-6.2 2.5-7.6 1.3-.8 2.9-1.3 3.5-.9.5.3 1 3.8 1 7.6 0 6.2.2 7 1.8 6.7 1.3-.2 1.8-1.5 2-5.9.5-9.6-2.5-13.3-8.4-10.3-1.5.8-3 1.1-3.3.6-1.2-1.7-3.9-2-6.5-.7zm27.3-.3c-5.2 1.8-6.6 10.2-2.4 14.4 2 2 3.3 2.5 6.7 2.2 2.3-.2 4.3-.9 4.6-1.6.3-1-.4-1.2-2.9-.7-3.8.6-5.1 0-6.8-3.3-1.1-2.2-1.1-2.2 4.4-2.2 6 0 6.8-1 4.2-5.9-1.5-3-4.4-4.1-7.8-2.9zm5.1 3.8c1 1.8.8 2-2.5 2-2.2 0-3.5-.5-3.5-1.3 0-3.3 4.4-3.7 6-.7zm16.5-4.2c-1.1.2-2.6.9-3.2 1.4-.9.7-1.3.7-1.3-.1 0-.6-.7-1.1-1.5-1.1-1.2 0-1.5 1.6-1.5 8.5s.3 8.5 1.5 8.5 1.5-1.3 1.5-5.5.5-6 2-7.5c4.3-4.3 6-2.2 6 7.1 0 4.6.3 5.9 1.5 5.9 1.3 0 1.5-1.3 1.3-7.6-.3-6.4-.6-7.9-2.3-8.9-1.1-.6-2.9-1-4-.7zm70.8 0c-5.5.8-7.3 10.3-2.8 14.8 2 2 3.3 2.5 6.7 2.2 2.3-.2 4.3-.9 4.6-1.6.3-1-.4-1.2-3.1-.7-2.8.6-3.9.3-5.6-1.4-3.3-3.3-2.5-4.1 3.4-4.1 5.5 0 5.5 0 4.9-2.8-1.4-5.8-3.2-7.2-8.1-6.4zm4.5 4.4c.3 1.5-.4 1.8-3.3 1.8-3.3 0-3.5-.2-2.5-2.1 1.4-2.4 5.3-2.2 5.8.3zm24.8-3.6c-1.4.7-2.6.9-2.6.3 0-.5-.7-.9-1.5-.9-1.2 0-1.5 1.6-1.5 8.5s.3 8.5 1.5 8.5 1.5-1.3 1.5-5.8c0-4.6.4-6.3 2-7.7 3.5-3.2 5-1.3 5 6.5 0 5.6.3 7 1.5 7s1.5-1.3 1.5-5.5.5-6 2-7.5c1.1-1.1 2.4-2 3-2 1.8 0 3 3.8 3 9.4 0 4.3.3 5.6 1.5 5.6s1.5-1.4 1.5-7c0-5.7-.4-7.4-2.1-9.1-2-2-4.8-1.9-7.6.3-.7.5-1.3.5-1.7 0-1-1.7-4.4-2-7-.6zm86.2-.2c-1.2.6-2.9 2.4-3.7 4-1.8 3.7-.1 9.7 3.2 11.5 2.9 1.6 8.9 1.1 9.5-.8.3-1-.3-1.1-2.7-.6-2.4.5-3.7.2-5.2-1.1-3.3-3-2.4-4.4 3.1-4.4 4.5 0 5-.2 5-2.3 0-5.1-4.8-8.5-9.2-6.3zm5 2.8c2 2 1.4 2.8-2.3 2.8-1.9 0-3.5-.4-3.5-.8 0-1.2 2.2-3.2 3.5-3.2.6 0 1.6.5 2.3 1.2zm52.1-2.8c-4.4 2.2-5.6 12.3-1.7 14.8 2 1.2 7.2 1 8.6-.4 1.9-1.9 1.5 1.3-.4 4.1-1.4 2-2.2 2.2-5.5 1.7-3.1-.5-3.9-.3-3.9.9 0 1.1 1.2 1.5 4.8 1.5 2.6 0 5.2-.4 5.8-.8 2.4-1.6 3.4-5.5 3.4-13.8s-.1-8.6-2.1-8.1c-1.2.3-3.1.2-4.4-.3-1.4-.5-3.1-.4-4.6.4zm7 3c2 2.4.9 7.9-1.8 9.3-4.9 2.4-8.1-3.1-5.1-8.8 1.2-2.2 5.2-2.5 6.9-.5zm44.2-3.5c-4 1.1-3.8 3.1.2 2.4 2.8-.4 3.7-.1 4.6 1.5 1.2 2.3.6 3.2-2.3 3.2-5.1 0-8.5 5.7-5.4 8.8 1.5 1.5 6.5 1.6 7.4.1.4-.8.9-.8 1.7 0 1.3 1.3 4.7 1.5 4.7.2 0-.6-.4-1.3-1-1.6-.5-.3-1-3-1-5.9 0-7.4-3-10.3-8.9-8.7zm5.7 11.3c-.3 2.5-4.3 3.7-6.1 1.9-1.5-1.5 1-4.1 4-4.1 2 0 2.4.4 2.1 2.2zm14.8-10.7c-1.4.8-2.6 1-2.6.4 0-.5-.7-.9-1.5-.9-1.2 0-1.5 1.6-1.5 8.5s.3 8.5 1.5 8.5 1.5-1.3 1.5-6c0-5.3.3-6.1 2.6-7.7 2.5-1.6 2.7-1.6 4 .2.8 1.1 1.4 4.3 1.4 7.7 0 4.5.3 5.8 1.5 5.8s1.5-1.4 1.5-6.8c0-9.2-2.9-12.5-8.4-9.7zm-969.6.6c0 .6 1 4.4 2.2 8.5 2.8 9.6 4.7 10 7.3 1.1l1.8-6.2 1.9 6.3c2.7 8.5 4.3 8 7.9-2.6 2.4-7.2 2.6-8.3 1.1-8-1 .2-2.2 2.3-3.2 5.5-.9 2.9-1.8 5.5-2.1 5.8-.4.3-1.2-2.2-1.9-5.5-1-4.7-1.7-6-3.1-6-1.4 0-2.3 1.6-3.8 6.2l-1.9 6.3-1.8-6.3c-1-3.6-2.3-6.2-3.1-6.2-.7 0-1.3.5-1.3 1.1zm204 7.4c0 6.9.3 8.5 1.5 8.5s1.5-1.6 1.5-8.5-.3-8.5-1.5-8.5-1.5 1.6-1.5 8.5zm171 0c0 6.9.3 8.5 1.5 8.5s1.5-1.6 1.5-8.5-.3-8.5-1.5-8.5-1.5 1.6-1.5 8.5zm404 0c0 6.9.3 8.5 1.5 8.5s1.5-1.6 1.5-8.5-.3-8.5-1.5-8.5-1.5 1.6-1.5 8.5zm107 0c0 6.9.3 8.5 1.5 8.5s1.5-1.6 1.5-8.5-.3-8.5-1.5-8.5-1.5 1.6-1.5 8.5zm29 0c0 6.9.3 8.5 1.5 8.5s1.5-1.6 1.5-8.5-.3-8.5-1.5-8.5-1.5 1.6-1.5 8.5zm193.3 3.6c-3.6 1.1-4.4 2.9-1.3 2.9 1.8 0 2 .7 2 8.5s-.2 8.5-2 8.5c-1.1 0-2 .7-2 1.5 0 1.2 1.3 1.5 6 1.5s6-.3 6-1.5c0-.8-.9-1.5-2-1.5-1.9 0-2-.7-2-10.5 0-5.8-.3-10.5-.7-10.4-.5 0-2.3.5-4 1zm30 0c-3.9 1.1-4.4 2.9-.8 2.9 2.5 0 2.5.1 2.5 8.5s0 8.5-2.5 8.5c-1.6 0-2.5.6-2.5 1.5 0 1.2 1.3 1.5 6 1.5s6-.3 6-1.5c0-.8-.9-1.5-2-1.5-1.9 0-2-.7-2-10.5 0-5.8-.3-10.5-.7-10.4-.5 0-2.3.5-4 1zm27.7 1.4c-3.4 3.6-4 13.6-1.1 18.2 3.4 5.4 10.9 4.3 13-1.8 4.2-12.1-4.6-24.2-11.9-16.4zm8 2c1.4 1.6 1.8 9.7.7 13.7-.9 3.4-4.3 4.6-6.6 2.4-2.1-2.1-2.3-13.5-.2-15.9 1.7-2.1 4.5-2.2 6.1-.2zM111 354.9c-.5 1.1-1 2.9-1 4 0 1-.6 2.2-1.2 2.5-1 .5-1 .7 0 1.2.8.4 1.2 3 1.2 8 0 5.9.3 7.4 1.5 7.4s1.5-1.5 1.5-7.5c0-7.3.1-7.5 2.5-7.5 1.4 0 2.5-.5 2.5-1 0-.6-1.1-1-2.5-1-1.7 0-2.5-.5-2.5-1.8 0-2.9 1.6-4.5 3.9-3.9 1.4.3 2.1 0 2.1-.9 0-2.3-6.7-1.8-8 .5zm373 10.6c0 10.4.2 12.5 1.5 12.5s1.5-2.1 1.5-12.5-.2-12.5-1.5-12.5-1.5 2.1-1.5 12.5zm232 0c0 10.4.2 12.5 1.5 12.5s1.5-2.1 1.5-12.5-.2-12.5-1.5-12.5-1.5 2.1-1.5 12.5zm76-8c0 4.3-.1 4.4-2.3 3.6-5.2-2-10.5 4-9.3 10.5.4 1.8 1.4 4 2.2 4.9 1.8 1.8 6.5 2 8.2.3.9-.9 1.2-.9 1.2 0 0 .7.9 1.2 2 1.2 1.9 0 2-.7 2-12.5s-.1-12.5-2-12.5c-1.7 0-2 .7-2 4.5zm-1.6 6.1c1.1.4 1.6 1.9 1.6 4.9 0 4.8-1.7 6.8-5.2 6.3-1.9-.2-2.3-1-2.6-4.6-.4-6 1.7-8.3 6.2-6.6zm11.6-7.1c0 .8.7 1.5 1.5 1.5s1.5-.7 1.5-1.5-.7-1.5-1.5-1.5-1.5.7-1.5 1.5zm29 0c0 .8.7 1.5 1.5 1.5s1.5-.7 1.5-1.5-.7-1.5-1.5-1.5-1.5.7-1.5 1.5zm398 1.5c0 1.3.7 2 2 2s2-.7 2-2-.7-2-2-2-2 .7-2 2zm31 .1c0 2.5 3.3 2.2 3.8-.4.2-1.2-.3-1.7-1.7-1.7-1.5 0-2.1.6-2.1 2.1zm-1101.7-.4c-.7.3-1.3 1.1-1.3 1.8s-.6 1.6-1.2 1.9c-1 .5-1 .7 0 1.2.8.4 1.2 2.8 1.2 6.8 0 6.7 1 8.6 4.7 8.6 2.8 0 3-1.1.3-2.8-1.6-1-2-2.3-2-6.7 0-4.8.2-5.5 2-5.5 1.1 0 2-.5 2-1 0-.6-.9-1-1.9-1-1.1 0-2.1-.8-2.3-1.8-.2-1.1-.9-1.7-1.5-1.5zm535.7 1.7c0 .8-.6 1.7-1.2 2-1 .5-1 .7 0 1.2.7.3 1.2 2.6 1.2 6 0 7.1 1.2 9.4 5 9.4 3.6 0 3.9-1.1.8-2.5-2-.9-2.3-1.8-2.3-6.5 0-4.9.2-5.5 2.3-5.8 2.8-.4 2.9-2.2.2-2.2-1.1 0-2.3-.7-2.6-1.5-.8-1.9-3.4-2-3.4-.1zm65.2.7c-1 1.5-1.1 2.4-.3 3.2.6.6 1.1 3.6 1.1 6.7 0 6.1 1.1 8 4.7 8 2.8 0 3-1.6.3-2.3-1.7-.4-2-1.4-2-6.6 0-5.4.2-6.1 2-6.1 1.1 0 2-.5 2-1 0-.6-.9-1-2-1s-2-.7-2-1.5c0-2.2-2.3-1.8-3.8.6zm80.8-.7c0 .8-.6 1.7-1.2 2-1 .5-1 .7 0 1.2.7.3 1.2 2.6 1.2 6 0 7.1 1.2 9.4 5 9.4 3.6 0 3.9-1.1.8-2.5-2-.9-2.3-1.8-2.3-6.5 0-4.9.2-5.5 2.3-5.8 2.8-.4 2.9-2.2.2-2.2-1.1 0-2.3-.7-2.6-1.5-.8-1.9-3.4-2-3.4-.1zm22 0c0 .8-.6 1.7-1.2 1.9-1 .4-1 .8-.2 1.4.6.4 1.3 3.6 1.6 7.1.5 6.7 1.5 8.2 5.6 8.2 2.7 0 2.9-1.6.2-2.3-1.7-.4-2-1.4-2-6.6 0-5.4.2-6.1 2-6.1 1.1 0 2-.5 2-1 0-.6-.9-1-2-1s-2-.7-2-1.5-.9-1.5-2-1.5-2 .6-2 1.4zm-817.5 1.4c-1.1.2-2.6.9-3.2 1.4-.9.7-1.3.7-1.3-.1 0-.6-.7-1.1-1.5-1.1-1.2 0-1.5 1.6-1.5 8.5s.3 8.5 1.5 8.5 1.5-1.3 1.5-5.5.5-6 2-7.5c4.3-4.3 6-2.2 6 7.1 0 4.6.3 5.9 1.5 5.9 1.3 0 1.5-1.3 1.3-7.6-.3-6.4-.6-7.9-2.3-8.9-1.1-.6-2.9-1-4-.7zm15.8.3c-4.8 1.8-6.1 10.3-2.2 14.5 2.7 2.9 10.9 3.6 10.9.9 0-1.1-.7-1.4-2.5-.9-2.9.7-7.5-1.8-7.5-4.1 0-1.1 1.3-1.5 5-1.5 4.8 0 5-.1 5-2.8 0-1.5-.4-3.2-.8-3.9-1.2-1.9-5.5-3.1-7.9-2.2zm4.7 2.3c0 .2.3 1.1.6 2 .5 1.3-.1 1.6-3 1.6-3.8 0-4.4-.8-2.4-2.8 1.1-1.1 4.8-1.7 4.8-.8zm59.9-2.2c-5.2 1.8-6.6 10.2-2.4 14.4 2 2 3.3 2.5 6.7 2.2 2.3-.2 4.3-.9 4.6-1.6.3-1-.4-1.2-2.9-.7-3.8.6-5.1 0-6.8-3.3-1.1-2.2-1.1-2.2 4.4-2.2 6 0 6.8-1 4.2-5.9-1.5-3-4.4-4.1-7.8-2.9zm5.1 3.8c1 1.8.8 2-2.5 2-2.2 0-3.5-.5-3.5-1.3 0-3.3 4.4-3.7 6-.7zm12.1-4.1c-4 1.1-3.6 2.8.6 2.7 3.1-.1 3.9.3 4.1 1.9.2 1.7-.5 2.3-4 3-4 .9-4.3 1.2-4.3 4.4 0 4.4 2.3 6 6.5 4.4 1.7-.6 3.2-.7 3.6-.2.7 1.2 4.4 1.2 4.4 0 0-.5-.5-1.1-1.2-1.3-.7-.3-1.4-3.2-1.6-7.2-.4-6-.7-6.8-2.9-7.7-1.3-.5-2.5-.9-2.6-.8-.1.1-1.3.4-2.6.8zm4.7 11.3c-.4 3.1-5.8 4-5.8.9 0-2 1.2-2.9 4.3-3 1.4-.1 1.8.5 1.5 2.1zm47.4-10.6c-1.2.8-2.2 1-2.2.5 0-.6-.7-1.1-1.5-1.1-1.2 0-1.5 1.6-1.5 8.5s.3 8.5 1.5 8.5 1.5-1.3 1.5-5.8c0-5.9 1.8-9.2 4.8-9.2.7 0 1.2-.7 1.2-1.5 0-1.9-1-1.9-3.8.1zm11.1-.5c-4.8 1.8-6.1 10.3-2.2 14.5 2.7 2.9 10.9 3.6 10.9.9 0-1.1-.7-1.4-2.5-.9-2.9.7-7.5-1.8-7.5-4.1 0-1.1 1.3-1.5 5-1.5 4.8 0 5-.1 5-2.8 0-1.5-.4-3.2-.8-3.9-1.2-1.9-5.5-3.1-7.9-2.2zm4.7 2.3c0 .2.3 1.1.6 2 .5 1.3-.1 1.6-3 1.6-3.8 0-4.4-.8-2.4-2.8 1.1-1.1 4.8-1.7 4.8-.8zm12.4-2.4c-4.8 1.9-4.3 6.7 1.1 9.3 5.5 2.6 3.9 6.6-2.2 5.1-1.9-.5-2.4-.3-2.1.7.6 1.8 6.1 2.4 8.8.9 1.3-.7 2-2.1 2-4 0-2.5-.7-3.3-4.1-5-4.6-2.4-4.7-4.4-.1-4.8 1.8-.2 3.2-.7 3.2-1.3 0-.5-.4-.9-.9-.9s-1.5-.2-2.3-.4c-.7-.3-2.3-.1-3.4.4zm236.4.4c-1.6.8-2.8 1.1-2.8.5 0-.5-.7-.9-1.5-.9-1.2 0-1.5 1.6-1.5 8.5s.3 8.5 1.5 8.5 1.5-1.3 1.5-6c0-5.7.2-6.2 3-7.8 1.6-.9 3-2.3 3-3 0-1.5.1-1.5-3.2.2zm11.5-.6c-5.5.8-7.3 10.3-2.8 14.8 2 2 3.3 2.5 6.7 2.2 2.3-.2 4.3-.9 4.6-1.6.3-1-.4-1.2-3.1-.7-2.8.6-3.9.3-5.6-1.4-3.3-3.3-2.5-4.1 3.4-4.1 5.5 0 5.5 0 4.9-2.8-1.4-5.8-3.2-7.2-8.1-6.4zm4.5 4.4c.3 1.5-.4 1.8-3.3 1.8-3.3 0-3.5-.2-2.5-2.1 1.4-2.4 5.3-2.2 5.8.3zm22.1-4c-5.2 1.8-6.6 10.2-2.4 14.4 2 2 3.3 2.5 6.7 2.2 2.3-.2 4.3-.9 4.6-1.6.3-1-.4-1.2-2.9-.7-3.8.6-5.1 0-6.8-3.3-1.1-2.2-1.1-2.2 4.4-2.2 6 0 6.8-1 4.2-5.9-1.5-3-4.4-4.1-7.8-2.9zm5.1 3.8c1 1.8.8 2-2.5 2-2.2 0-3.5-.5-3.5-1.3 0-3.3 4.4-3.7 6-.7zm12.1-4.1c-4 1.1-3.6 2.8.6 2.7 3.1-.1 3.9.3 4.1 1.9.2 1.7-.5 2.3-4 3-4 .9-4.3 1.2-4.3 4.4 0 4.4 2.3 6 6.5 4.4 1.7-.6 3.2-.7 3.6-.2.7 1.2 4.4 1.2 4.4 0 0-.5-.5-1.1-1.2-1.3-.7-.3-1.4-3.2-1.6-7.2-.4-6-.7-6.8-2.9-7.7-1.3-.5-2.5-.9-2.6-.8-.1.1-1.3.4-2.6.8zm4.7 11.3c-.4 3.1-5.8 4-5.8.9 0-2 1.2-2.9 4.3-3 1.4-.1 1.8.5 1.5 2.1zm13.4-11.4c-5.3.8-4.8 6.8.8 9.7 1.7.9 3 2.2 3 3 0 1.9-3.5 2.8-6.1 1.5-1.8-1-2-.9-1.7.7.2 1.3 1.4 1.9 4.5 2.1 3.5.3 4.4-.1 5.8-2.2 2.1-3.1.8-5.8-3.5-7.6-4.1-1.7-4.1-5 0-5 1.7 0 3-.4 3-.9 0-1.1-2.8-1.8-5.8-1.3zm17.1 0c-5.5.8-7.3 10.3-2.8 14.8 2 2 3.3 2.5 6.7 2.2 2.3-.2 4.3-.9 4.6-1.6.3-1-.4-1.2-3.1-.7-2.8.6-3.9.3-5.6-1.4-3.3-3.3-2.5-4.1 3.4-4.1 5.5 0 5.5 0 4.9-2.8-1.4-5.8-3.2-7.2-8.1-6.4zm4.5 4.4c.3 1.5-.4 1.8-3.3 1.8-3.3 0-3.5-.2-2.5-2.1 1.4-2.4 5.3-2.2 5.8.3zm81-3.8c-1.6.8-2.8 1.1-2.8.5 0-.5-.7-.9-1.5-.9-1.2 0-1.5 1.6-1.5 8.5s.3 8.5 1.5 8.5 1.5-1.3 1.5-6c0-5.7.2-6.2 3-7.8 1.6-.9 3-2.3 3-3 0-1.5.1-1.5-3.2.2zm11.5-.6c-5.5.8-7.3 10.3-2.8 14.8 2 2 3.3 2.5 6.7 2.2 2.3-.2 4.3-.9 4.6-1.6.3-1-.4-1.2-3.1-.7-2.8.6-3.9.3-5.6-1.4-3.3-3.3-2.5-4.1 3.4-4.1 5.5 0 5.5 0 4.9-2.8-1.4-5.8-3.2-7.2-8.1-6.4zm4.5 4.4c.3 1.5-.4 1.8-3.3 1.8-3.3 0-3.5-.2-2.5-2.1 1.4-2.4 5.3-2.2 5.8.3zM663 361c-1.9.4-2.6 1.3-2.8 3.7-.3 2.8.2 3.5 3.8 5.8 3.4 2.2 3.9 2.9 2.9 4.1-.8 1-2.2 1.2-4.7.8-2.7-.5-3.4-.4-3 .7.7 2.1 8.2 2.4 10.2.3 2.5-2.5 1.5-5.6-2.6-8.3-4.8-3.1-4.9-5.1-.3-5.1 1.9 0 3.5-.4 3.5-.9 0-1.2-4-1.8-7-1.1zm16.9.2c-5.2 1.8-6.6 10.2-2.4 14.4 2 2 3.3 2.5 6.7 2.2 2.3-.2 4.3-.9 4.6-1.6.3-1-.4-1.2-2.9-.7-3.8.6-5.1 0-6.8-3.3-1.1-2.2-1.1-2.2 4.4-2.2 6 0 6.8-1 4.2-5.9-1.5-3-4.4-4.1-7.8-2.9zm5.1 3.8c1 1.8.8 2-2.5 2-2.2 0-3.5-.5-3.5-1.3 0-3.3 4.4-3.7 6-.7zm43.8-4.2c-1.6.2-2.8 1-2.8 1.7 0 1.1.8 1.3 3.1.8 2.1-.4 3.4-.1 4 .8 1.6 2.5 1 3.9-1.9 3.9-5.6 0-9.3 5.5-6 8.8 1.6 1.6 6 1.5 7.7-.1 1.1-1 1.4-1 1.8 0 .3.7 1.3 1.3 2.4 1.3 2 0 2.6-1.5.9-2.5-.5-.3-1-3.2-1-6.4 0-7.2-1.9-9.1-8.2-8.3zm5 11.4c-.3 2.5-4.3 3.7-6.1 1.9-1.5-1.5 1-4.1 4-4.1 2 0 2.4.4 2.1 2.2zM746 361c-1.9.4-2.6 1.3-2.8 3.7-.3 2.8.2 3.5 3.8 5.8 3.4 2.2 3.9 2.9 2.9 4.1-.8 1-2.2 1.2-4.7.8-2.7-.5-3.4-.4-3 .7.7 2.1 8.2 2.4 10.2.3 2.5-2.5 1.5-5.6-2.6-8.3-4.8-3.1-4.9-5.1-.3-5.1 1.9 0 3.5-.4 3.5-.9 0-1.2-4-1.8-7-1.1zm132.4.1c-5.3 1.5-7.2 9.4-3.3 14.3 2.9 3.7 8.9 3.7 11.8 0 2.2-2.8 2.8-8.3 1.1-11.4-1.3-2.5-5.9-3.8-9.6-2.9zm5 2.5c2.4.9 3.1 6.9 1.2 9.9-3.1 4.7-8 2.3-8-4 0-5.2 2.7-7.5 6.8-5.9zm42.5-2.4c-5.2 1.8-6.6 10.2-2.4 14.4 2 2 3.3 2.5 6.7 2.2 2.3-.2 4.3-.9 4.6-1.6.3-1-.4-1.2-2.9-.7-3.8.6-5.1 0-6.8-3.3-1.1-2.2-1.1-2.2 4.4-2.2 6 0 6.8-1 4.2-5.9-1.5-3-4.4-4.1-7.8-2.9zm5.1 3.8c1 1.8.8 2-2.5 2-2.2 0-3.5-.5-3.5-1.3 0-3.3 4.4-3.7 6-.7zm14.8-3.6c-1.6.8-2.8 1.1-2.8.5 0-.5-.7-.9-1.5-.9-1.2 0-1.5 1.6-1.5 8.5s.3 8.5 1.5 8.5 1.5-1.3 1.5-6c0-5.7.2-6.2 3-7.8 1.6-.9 3-2.3 3-3 0-1.5.1-1.5-3.2.2zm11.6-.3c-5.3 1.5-7.2 9.4-3.3 14.3 2.9 3.7 8.9 3.7 11.8 0 2.2-2.8 2.8-8.3 1.1-11.4-1.3-2.5-5.9-3.8-9.6-2.9zm5 2.5c2.4.9 3.1 6.9 1.2 9.9-3.1 4.7-8 2.3-8-4 0-5.2 2.7-7.5 6.8-5.9zm-889.8 0c4.1 16.1 6.2 18 9.2 8.3 2.1-6.8 2.3-6.8 4.3.8 1.9 7.7 3.9 7.1 6.8-2 1.3-3.9 2.6-7.8 2.8-8.5.3-.6-.1-1.2-.9-1.2-.9 0-2.2 2.3-3.3 6.1-2 6.7-2.4 6.5-4.5-1.9-1.7-6.5-4.2-5.7-6.5 2l-1.8 6.3-1.9-6.3c-1.2-4-2.4-6.2-3.4-6.2-1.1 0-1.3.7-.8 2.6zm96.4 4.7c0 8 .9 9.7 5 9.7 1.4 0 3.1-.5 3.8-1.2.9-.9 1.2-.9 1.2 0 0 .7.9 1.2 2 1.2 1.8 0 2-.7 2-8.5s-.2-8.5-2-8.5-2 .7-2 5.8c0 6.3-1.1 8.2-4.7 8.2-2.2 0-2.3-.4-2.3-7 0-5.6-.3-7-1.5-7s-1.5 1.5-1.5 7.3zm633 1.2c0 6.9.3 8.5 1.5 8.5s1.5-1.6 1.5-8.5-.3-8.5-1.5-8.5-1.5 1.6-1.5 8.5zm9.6-6.3c-2 2.9-2 8.7 0 11.6 1.7 2.5 7.1 3.1 9.2 1 .9-.9 1.2-.7 1.2.9 0 3.7-2.8 5.6-7.2 4.9-3-.5-3.8-.3-3.8.9 0 2.4 9.5 2 12-.5 1.7-1.7 2-3.3 2-11.4v-9.3l-5.9-.2c-5.1-.1-6.2.2-7.5 2.1zm9.2 1c2.1 2.1 1.5 7.5-1 9.2-1.2.9-2.6 1.6-3 1.6-1.6 0-3.8-3.4-3.8-6 0-4.8 4.8-7.8 7.8-4.8zm10.2 5.3c0 6.9.3 8.5 1.5 8.5s1.5-1.6 1.5-8.5-.3-8.5-1.5-8.5-1.5 1.6-1.5 8.5zm72-7.6c0 .6 2.2 1.1 5 1.3l5 .3-5 5.8c-6.8 8-6.6 8.7 2 8.7 5.4 0 7-.3 7-1.4 0-1.1-1.4-1.6-4.7-1.8l-4.6-.3 4.6-5.4c2.6-3 4.7-6.1 4.7-6.8 0-.9-1.9-1.3-7-1.3-3.8 0-7 .4-7 .9zM59 427.5c0 10.4.2 12.5 1.5 12.5 1.1 0 1.5-1.3 1.5-5.3 0-4.4.4-5.8 2.4-7.7 4.1-3.8 5.6-2.2 5.6 6 0 5.6.3 7 1.5 7s1.5-1.5 1.5-7.3c0-9.8-1.6-11.6-7.7-9.1l-3.3 1.3v-5c0-3.7-.4-4.9-1.5-4.9-1.3 0-1.5 2.1-1.5 12.5zm134 0c0 10.4.2 12.5 1.5 12.5 1.2 0 1.5-1.3 1.5-6 0-5.3.3-6.1 2.6-7.7 2.5-1.6 2.7-1.6 4 .2.8 1.1 1.4 4.3 1.4 7.7 0 4.5.3 5.8 1.5 5.8s1.5-1.4 1.5-6.8c0-9.2-2.9-12.5-8.4-9.7l-2.6 1.4v-5c0-3.7-.4-4.9-1.5-4.9-1.3 0-1.5 2.1-1.5 12.5zm59-.1v12.3l6.3-.1c6.2-.1 6.2-.1 8.1-3.9 1.6-3.4 1.7-4.4.7-7.8-1.5-5-4.9-6.6-9.2-4.5l-2.9 1.4v-4.9c0-3.7-.4-4.9-1.5-4.9-1.3 0-1.5 2-1.5 12.4zm10.8-1.2c1.7 1.7 1.5 8.4-.4 10.2-1.9 2-2.4 2-5.2 0-3.3-2.3-2.8-8.3.8-10.1 3.1-1.6 3.3-1.6 4.8-.1zm58.2 1.3c0 10.4.2 12.5 1.5 12.5 1.1 0 1.5-1.1 1.5-4.2v-4.2l4.3 4.2c2.3 2.3 5.1 4.2 6.1 4.2 1.4 0 .9-1-2.3-4.7l-4-4.7 3.1-3.5c4.3-4.9 1.7-5.3-3.3-.5l-3.9 3.8v-7.7c0-6.2-.3-7.7-1.5-7.7-1.3 0-1.5 2.1-1.5 12.5zm486 0c0 10.4.2 12.5 1.5 12.5 1.1 0 1.5-1.2 1.5-4.9 0-6 .6-7.8 3.2-9.2 3.3-1.8 4.8.5 4.8 7.7 0 5 .3 6.4 1.5 6.4s1.5-1.5 1.5-7.5c0-6.8-.2-7.6-2.5-9.1-2.2-1.4-2.7-1.4-5.5-.1l-3 1.5v-4.9c0-3.7-.4-4.9-1.5-4.9-1.3 0-1.5 2.1-1.5 12.5zm50.2-11.3c-.5.7-1.3 2.4-1.7 3.8-.4 1.4-1.3 2.9-1.9 3.3-.8.6-.8 1 .2 1.4.8.3 1.2 2.9 1.2 7.9 0 6.7.2 7.4 2 7.4s2-.7 2-7.5V425h7v7.5c0 6 .3 7.5 1.5 7.5s1.5-1.6 1.5-8.5V423h-5.1c-4.9 0-5-.1-4.7-2.8.2-2.1.8-2.7 2.6-2.6 1.2 0 2.2-.5 2.2-1.3 0-1.7-5.4-1.7-6.8-.1zm80.8 3.2c0 4.4 0 4.4-2.8 3.7-5.6-1.7-9.2 1.7-9.2 8.6 0 6.9 4.6 10.2 10.1 7.3 1.3-.7 1.9-.7 1.9 0 0 .5.7 1 1.5 1 1.3 0 1.5-2.1 1.5-12.5s-.2-12.5-1.5-12.5c-1.1 0-1.5 1.2-1.5 4.4zm-1.2 6.8c.7.7 1.2 2.8 1.2 4.8 0 4.1-1.4 6-4.7 6-2.4 0-4.3-2.6-4.3-6 0-5.1 4.7-7.9 7.8-4.8zm119.2-6.7c0 4.2-.1 4.4-2.2 3.6-3.2-1.2-7.3.5-8.7 3.5-1.6 3.5-1.4 8.6.5 11.2 1.7 2.5 7.1 3.1 9.2 1 .9-.9 1.2-.9 1.2 0 0 .7.7 1.2 1.5 1.2 1.3 0 1.5-2.1 1.5-12.5s-.2-12.5-1.5-12.5c-1.1 0-1.5 1.2-1.5 4.5zm-1.2 6.7c.7.7 1.2 2.8 1.2 4.8 0 4.2-1.4 6-4.7 6-4 0-5.3-6.7-2.1-10.8 1.3-1.5 4-1.6 5.6 0zM41.4 417.6c-3.9 1.9-5.4 5.1-5.4 11.5 0 4.2.5 5.5 2.9 8 2.4 2.3 3.8 2.9 7.4 2.9 5.5 0 7.7-.8 7.7-2.7 0-1.1-.6-1.2-2.2-.6-8.9 3-15.2-4.1-11.4-13 1.6-4.1 4.5-5.3 10.2-4.4 2.4.4 3.4.2 3.4-.8 0-2.8-7.6-3.4-12.6-.9zM453 428.5c0 9.6.3 11.5 1.5 11.5s1.5-1.7 1.6-8.8v-8.7l2.8 7.5c3.8 10.4 5.8 10.6 9.1.9l2.5-7.2.5 7.9c.4 6.5.8 7.9 2.3 8.2 1.5.3 1.7-.7 1.7-11.2 0-11.6 0-11.6-2.4-11.6-2.1 0-2.7 1-5.2 8-1.6 4.4-3.1 8-3.4 8-.3 0-1.8-3.6-3.4-8-2.5-7-3.1-8-5.2-8-2.4 0-2.4 0-2.4 11.5zm46-10c0 .8.7 1.5 1.5 1.5s1.5-.7 1.5-1.5-.7-1.5-1.5-1.5-1.5.7-1.5 1.5zm130 10c0 9.6.3 11.5 1.5 11.5s1.5-1.9 1.5-11.5-.3-11.5-1.5-11.5-1.5 1.9-1.5 11.5z"/><path d="M866 418.5c0 .8.7 1.5 1.5 1.5s1.5-.7 1.5-1.5-.7-1.5-1.5-1.5-1.5.7-1.5 1.5zm81 0c0 .8.7 1.5 1.5 1.5s1.5-.7 1.5-1.5-.7-1.5-1.5-1.5-1.5.7-1.5 1.5zm29 0c0 .8.7 1.5 1.5 1.5s1.5-.7 1.5-1.5-.7-1.5-1.5-1.5-1.5.7-1.5 1.5zm-793.7 1.2c-.7.3-1.3 1.1-1.3 1.8s-.6 1.6-1.2 1.9c-1 .5-1 .7 0 1.2.8.4 1.2 2.8 1.2 6.8 0 6.7 1 8.6 4.7 8.6 2.8 0 3-1.1.3-2.8-1.6-1-2-2.3-2-6.7 0-5.2.1-5.5 2.5-5.5 1.4 0 2.5-.5 2.5-1 0-.6-1.1-1-2.4-1-1.6 0-2.6-.6-2.8-1.8-.2-1.1-.9-1.7-1.5-1.5zm592 0c-.7.3-1.3 1.1-1.3 1.8s-.6 1.6-1.2 1.9c-1 .5-1 .7 0 1.2.7.3 1.2 2.6 1.2 6 0 7.1 1.2 9.4 5 9.4 3.6 0 3.9-1.1.8-2.5-2-.9-2.3-1.8-2.3-6.5 0-4.9.2-5.5 2.3-5.8 2.8-.4 2.9-2.2.2-2.2-1.1 0-2.4-.8-2.8-1.8-.4-1.1-1.3-1.7-1.9-1.5zm22 0c-.7.3-1.3 1.1-1.3 1.8s-.6 1.6-1.2 1.9c-1 .5-1 .7 0 1.2.7.3 1.2 2.6 1.2 6 0 7.1 1.2 9.4 5 9.4 3.6 0 3.9-1.1.8-2.5-2-.9-2.3-1.8-2.3-6.5 0-4.9.2-5.5 2.3-5.8 2.8-.4 2.9-2.2.2-2.2-1.1 0-2.4-.8-2.8-1.8-.4-1.1-1.3-1.7-1.9-1.5zm110 0c-.7.3-1.3 1.1-1.3 1.8s-.6 1.6-1.2 1.9c-1 .5-1 .7 0 1.2.8.4 1.2 2.8 1.2 6.8 0 6.7 1 8.6 4.7 8.6 2.8 0 3-1.1.3-2.8-1.6-1-2-2.3-2-6.7 0-5.2.1-5.5 2.5-5.5 1.4 0 2.5-.5 2.5-1 0-.6-1.1-1-2.4-1-1.6 0-2.6-.6-2.8-1.8-.2-1.1-.9-1.7-1.5-1.5zM230 421.4c0 .8-.6 1.7-1.2 1.9-1 .4-1 .8-.2 1.4.6.4 1.3 3.6 1.6 7.1.5 6.7 1.5 8.2 5.6 8.2 2.7 0 2.9-1.6.2-2.3-1.7-.4-2-1.4-2-6.6 0-5.4.2-6.1 2-6.1 1.1 0 2-.5 2-1 0-.6-.9-1-2-1s-2-.7-2-1.5-.9-1.5-2-1.5-2 .6-2 1.4zm755.2.7c-1 1.5-1.1 2.4-.3 3.2.6.6 1.1 3.6 1.1 6.7 0 6.1 1.1 8 4.7 8 2.8 0 3-1.6.3-2.3-1.7-.4-2-1.4-2-6.6 0-5.4.2-6.1 2-6.1 1.1 0 2-.5 2-1 0-.6-.9-1-2-1s-2-.7-2-1.5c0-2.2-2.3-1.8-3.8.6zm155 0c-1 1.5-1.1 2.4-.3 3.2.6.6 1.1 3.6 1.1 6.7 0 6.1 1.1 8 4.7 8 2.8 0 3-1.6.3-2.3-1.7-.4-2-1.4-2-6.6 0-5.4.2-6.1 2-6.1 1.1 0 2-.5 2-1 0-.6-.9-1-2-1s-2-.7-2-1.5c0-2.2-2.3-1.8-3.8.6zm-1058.4.6c-4.3.7-3.5 3 1 2.9 3-.1 3.8.3 4 1.9.2 1.7-.5 2.3-4 3-4 .9-4.3 1.2-4.3 4.4 0 4.4 2.3 6 6.5 4.4 1.7-.6 3.2-.7 3.6-.2.7 1.2 4.4 1.2 4.4 0 0-.5-.5-1.1-1.2-1.3-.7-.3-1.4-3.2-1.6-7.2-.4-6-.7-6.8-2.9-7.7-1.3-.5-2.5-.8-2.6-.8-.1.1-1.4.4-2.9.6zm5 11.5c-.4 3.1-5.8 4-5.8.9 0-2 1.2-2.9 4.3-3 1.4-.1 1.8.5 1.5 2.1zm15.8-10.7c-1.4.8-2.6 1-2.6.4 0-.5-.7-.9-1.5-.9-1.2 0-1.5 1.6-1.5 8.5s.3 8.5 1.5 8.5 1.5-1.3 1.5-6c0-5.3.3-6.1 2.6-7.7 2.5-1.6 2.7-1.6 4 .2.8 1.1 1.4 4.3 1.4 7.7 0 4.5.3 5.8 1.5 5.8s1.5-1.4 1.5-6.8c0-9.2-2.9-12.5-8.4-9.7zm18.4-.7c-5.1 1.6-7.2 7.9-4.5 13.2 1.6 3.1 1.9 3.2 6.1 2.7 3.7-.4 4.4-.2 4.4 1.3 0 2.8-2.6 4.3-6.5 3.7-2.6-.4-3.5-.2-3.5.9 0 1 1.3 1.4 4.8 1.4 7.3 0 8.5-1.9 9-13.5l.4-9.4-3.4.1c-1.9.1-3.9-.1-4.4-.4-.5-.3-1.6-.3-2.4 0zm4.4 2.8c1.1.4 1.6 1.9 1.6 4.8 0 3.5-.4 4.5-2.3 5.3-3.6 1.6-5.7-.1-5.7-4.5 0-5.3 2.2-7.2 6.4-5.6zm14.4-2.2c-3.7 1.9-5.3 6.1-3.9 10.7.7 2.1 2.1 4.4 3.2 4.9 2.7 1.5 9.1.9 9.7-.9.4-1.1-.2-1.2-2.3-.7-3.1.8-7.5-1.5-7.5-3.9 0-1.1 1.3-1.5 5-1.5 4.5 0 5-.2 5-2.3 0-5.1-4.8-8.5-9.2-6.3zm5 2.8c2 2 1.4 2.8-2.3 2.8-1.9 0-3.5-.4-3.5-.8 0-1.2 2.2-3.2 3.5-3.2.6 0 1.6.5 2.3 1.2zm12.2-2.9c-1.5.8-2.6 2.3-2.8 3.9-.3 2.1.4 3 3.7 4.9 2.3 1.2 4.1 2.6 4.1 3 0 1.6-3 2.9-5.4 2.3-2-.5-2.6-.2-2.6 1s1 1.6 3.6 1.6c4.7 0 7.4-1.6 7.4-4.3 0-3-.9-4.1-4.8-6.1-4-2.1-3.7-4.1.6-4.1 1.9 0 3.2-.5 3.2-1.2s-.4-1.3-.9-1.3-1.5-.2-2.3-.5c-.7-.3-2.4.1-3.8.8zm58.8-.6c-1.6.2-2.8 1.1-2.8 1.8 0 1.1.8 1.3 3.1.8 2.1-.4 3.4-.1 4 .8 1.6 2.5 1 3.9-1.9 3.9-5.6 0-9.3 5.5-6 8.8 1.6 1.6 6 1.5 7.7-.1 1.1-1 1.4-1 1.8 0 .3.7 1.3 1.3 2.4 1.3 2 0 2.6-1.5.9-2.5-.5-.3-1-3.3-1-6.5 0-4.9-.4-6.1-2.2-7.4-1.2-.9-2.5-1.5-2.8-1.5-.3.1-1.7.4-3.2.6zm5 11.5c-.3 2.6-4.6 3.8-5.9 1.7-1.1-1.9.9-3.9 3.8-3.9 2 0 2.4.4 2.1 2.2zm57.4-10.6c-1.2.8-2.2 1-2.2.5 0-.6-.7-1.1-1.5-1.1-1.2 0-1.5 1.6-1.5 8.5s.3 8.5 1.5 8.5 1.5-1.3 1.5-5.8c0-5.9 1.8-9.2 4.8-9.2.7 0 1.2-.7 1.2-1.5 0-1.9-1-1.9-3.8.1zm10.6-.2c-3.7 1.9-5.3 6.1-3.9 10.7.7 2.1 2.1 4.4 3.2 4.9 2.7 1.5 9.1.9 9.7-.9.4-1.1-.2-1.2-2.3-.7-3.1.8-7.5-1.5-7.5-3.9 0-1.1 1.3-1.5 5-1.5 4.5 0 5-.2 5-2.3 0-5.1-4.8-8.5-9.2-6.3zm5 2.8c2 2 1.4 2.8-2.3 2.8-1.9 0-3.5-.4-3.5-.8 0-1.2 2.2-3.2 3.5-3.2.6 0 1.6.5 2.3 1.2zm13-3.5c-1.6.2-2.8 1.1-2.8 1.8 0 1.1.8 1.3 3.1.8 2.1-.4 3.4-.1 4 .8 1.6 2.5 1 3.9-1.9 3.9-5.6 0-9.3 5.5-6 8.8 1.6 1.6 6 1.5 7.7-.1 1.1-1 1.4-1 1.8 0 .3.7 1.3 1.3 2.4 1.3 2 0 2.6-1.5.9-2.5-.5-.3-1-3.3-1-6.5 0-4.9-.4-6.1-2.2-7.4-1.2-.9-2.5-1.5-2.8-1.5-.3.1-1.7.4-3.2.6zm5 11.5c-.3 2.6-4.6 3.8-5.9 1.7-1.1-1.9.9-3.9 3.8-3.9 2 0 2.4.4 2.1 2.2zm172-11.5c-1.6.2-2.8 1.1-2.8 1.8 0 1.1.8 1.3 3.1.8 2.1-.4 3.4-.1 4 .8 1.6 2.5 1 3.9-1.9 3.9-5.6 0-9.3 5.5-6 8.8 1.6 1.6 6 1.5 7.7-.1 1.1-1 1.4-1 1.8 0 .3.7 1.3 1.3 2.4 1.3 2 0 2.6-1.5.9-2.5-.5-.3-1-3.3-1-6.5 0-4.9-.4-6.1-2.2-7.4-1.2-.9-2.5-1.5-2.8-1.5-.3.1-1.7.4-3.2.6zm5 11.5c-.3 2.6-4.6 3.8-5.9 1.7-1.1-1.9.9-3.9 3.8-3.9 2 0 2.4.4 2.1 2.2zm22.4-10.7c-3.3 1.5-4.2 3.2-4.2 8.4 0 4.9 3.2 8.1 8.2 8.1 6.8 0 10.3-8.6 5.8-14.2-2.4-3.1-5.9-3.9-9.8-2.3zm7.5 4.5c1.7 3.6.5 7.9-2.4 9.3-2.2 1-2.8.8-4.4-1.2-1.1-1.3-1.9-3.6-1.9-5.1 0-5.8 6.3-8 8.7-3zm14.5-4.4c-1.2.8-2.2 1-2.2.5 0-.6-.7-1.1-1.5-1.1-1.2 0-1.5 1.6-1.5 8.5s.3 8.5 1.5 8.5 1.5-1.3 1.5-5.8c0-5.9 1.8-9.2 4.8-9.2.7 0 1.2-.7 1.2-1.5 0-1.9-1-1.9-3.8.1zm111 0c-1.8.7-3.2.9-3.2.4 0-.6-.7-1-1.5-1-1.2 0-1.5 1.6-1.5 8.5s.3 8.5 1.5 8.5c1.1 0 1.5-1.3 1.5-5.3 0-4.4.4-5.8 2.4-7.7 4.1-3.8 5.6-2.2 5.6 6 0 5.6.3 7 1.5 7s1.5-1.5 1.5-7.3c0-9.8-1.7-11.7-7.8-9.1zm18.3-.4c-1.7.4-3.6 1.5-4.2 2.5-2 2.7-1.6 8.7.8 11.7 1.8 2.3 2.8 2.7 6.2 2.4 2.3-.2 4.2-.9 4.5-1.7.3-1-.2-1.2-2.2-.7-3.8.9-8.1-3.4-7.1-7.2 1-4 2.4-5.2 6.1-5.2 1.9 0 3.4-.4 3.4-.9 0-1.3-4.1-1.8-7.5-.9zm17.7.4c-1.2.8-2.2 1-2.2.5 0-.6-.7-1.1-1.5-1.1-1.2 0-1.5 1.6-1.5 8.5s.3 8.5 1.5 8.5 1.5-1.3 1.5-5.8c0-5.9 1.8-9.2 4.8-9.2.7 0 1.2-.7 1.2-1.5 0-1.9-1-1.9-3.8.1zm10.6-.2c-3.7 1.9-5.3 6.1-3.9 10.7.7 2.1 2.1 4.4 3.2 4.9 2.7 1.5 9.1.9 9.7-.9.4-1.1-.2-1.2-2.3-.7-3.1.8-7.5-1.5-7.5-3.9 0-1.1 1.3-1.5 5-1.5 4.5 0 5-.2 5-2.3 0-5.1-4.8-8.5-9.2-6.3zm5 2.8c2 2 1.4 2.8-2.3 2.8-1.9 0-3.5-.4-3.5-.8 0-1.2 2.2-3.2 3.5-3.2.6 0 1.6.5 2.3 1.2zm15.8-2.7c-1.4.8-2.6 1-2.6.4 0-.5-.7-.9-1.5-.9-1.2 0-1.5 1.6-1.5 8.5s.3 8.5 1.5 8.5 1.5-1.3 1.5-5.8c0-6.4 2.2-9.8 5.4-8.6 1.3.5 1.6 2 1.6 7.5s.3 6.9 1.5 6.9 1.5-1.3 1.5-6c0-5.2.3-6.2 2.5-7.6 1.3-.8 2.9-1.3 3.5-.9.5.3 1 3.7 1 7.6 0 6.2.2 6.9 2 6.9s2-.7 2-5.9c0-10.2-2.7-13.5-8.6-10.5-1.5.8-3 1.1-3.3.6-1.2-1.7-3.9-2-6.5-.7zm27.3-.3c-5.2 1.7-6.6 10.2-2.4 14.4 2 2 3.3 2.5 6.7 2.2 2.3-.2 4.3-.9 4.6-1.6.3-1-.4-1.2-2.9-.7-3.8.6-5.1 0-6.8-3.3-1.1-2.2-1.1-2.2 4.4-2.2 5.1 0 5.5-.2 5.5-2.3 0-2.8-2.4-6.3-4.7-6.9-1-.3-3-.1-4.4.4zm5.1 3.8c1 1.8.8 2-2.5 2-2.2 0-3.5-.5-3.5-1.3 0-3.3 4.4-3.7 6-.7zm14.8-3.6c-1.6.8-2.8 1.1-2.8.5 0-.5-.7-.9-1.5-.9-1.2 0-1.5 1.6-1.5 8.5s.3 8.5 1.5 8.5c1.1 0 1.5-1.2 1.5-4.9 0-6 .6-7.8 3.2-9.2 3.3-1.8 4.8.5 4.8 7.7 0 5 .3 6.4 1.5 6.4s1.5-1.5 1.5-7.4c0-6.6-.3-7.7-2.2-9-2.7-1.9-2.6-1.9-6-.2zm72.5-.6c-5.2.8-7.1 9.6-3.2 14.6 1.8 2.3 2.7 2.7 6.7 2.4 2.6-.2 4.7-.8 5-1.6.3-1-.4-1.2-3.1-.7-2.8.6-3.9.3-5.6-1.4-3.3-3.3-2.5-4.1 3.4-4.1 6 0 6.2-.3 4.1-5.4-1.4-3.4-3.4-4.4-7.3-3.8zm4.5 4.4c.3 1.5-.4 1.8-3.3 1.8-3.3 0-3.5-.2-2.5-2.1 1.4-2.4 5.3-2.2 5.8.3zm45.4-3.6c-1.2.8-2.2 1-2.2.5 0-.6-.7-1.1-1.5-1.1-1.2 0-1.5 1.6-1.5 8.5s.3 8.5 1.5 8.5 1.5-1.3 1.5-5.8c0-5.9 1.8-9.2 4.8-9.2.7 0 1.2-.7 1.2-1.5 0-1.9-1-1.9-3.8.1zm10.2-.6c-4.8 1.9-4.3 6.7 1.1 9.3 5.5 2.6 3.9 6.6-2.2 5.1-1.9-.5-2.4-.3-2.1.7.6 1.8 6.1 2.4 8.8.9 1.3-.7 2-2.1 2-4 0-2.5-.7-3.3-4.1-5-4.6-2.4-4.7-4.4-.1-4.8 1.8-.2 3.2-.7 3.2-1.3 0-.5-.4-.9-.9-.9s-1.5-.2-2.3-.4c-.7-.3-2.3-.1-3.4.4zm68.5.2c-4.6 1.6-6.4 9.2-3.3 13.6 1.7 2.5 7.1 3.1 9.2 1 .9-.9 1.2-.7 1.2.9 0 3.3-2.8 5.5-6.6 5.1-1.8-.2-3.3.1-3.4.7 0 .5 2.2 1.1 4.9 1.3 7 .4 8.1-1.5 8.1-13.5v-9.2l-2.9.1c-1.5.1-3.2-.1-3.7-.4-.5-.3-2.1-.1-3.5.4zm5.9 3c.7.7 1.2 2.7 1.2 4.5 0 2.4-.7 3.7-2.6 5-2.6 1.6-2.7 1.6-4.6-.7-4-5 1.6-13.2 6-8.8zm45-3.4c-4.3.5-3.5 2.9 1 2.8 3.1-.1 3.7.2 4 2.1.3 2-.1 2.3-2.7 2.3-3 0-7.1 2.9-7.1 5.1 0 4.2 4.7 6.2 9.1 3.9 1.3-.7 1.9-.7 1.9 0 0 .5 1.1 1 2.5 1 2.9 0 3.1-.6 1-2.6-.9-1-1.5-3.5-1.5-6.7 0-2.9-.4-5.7-.8-6.3-.9-1.4-3.9-2-7.4-1.6zm5 11.4c-.4 3.1-5.8 4-5.8 1 0-2.5.8-3.2 3.7-3.2 2 0 2.4.5 2.1 2.2zm15.4-10.6c-1.8.7-3.2.9-3.2.4 0-.6-.7-1-1.5-1-1.2 0-1.5 1.6-1.5 8.5s.3 8.5 1.5 8.5c1.1 0 1.5-1.3 1.5-5.3 0-4.4.4-5.8 2.4-7.7 4.1-3.8 5.6-2.2 5.6 6 0 5.6.3 7 1.5 7s1.5-1.5 1.5-7.3c0-9.8-1.7-11.7-7.8-9.1zm50 0c-1.2.8-2.2 1-2.2.5 0-.6-.7-1.1-1.5-1.1-1.2 0-1.5 1.6-1.5 8.5s.3 8.5 1.5 8.5 1.5-1.3 1.5-5.8c0-5.9 1.8-9.2 4.8-9.2.7 0 1.2-.7 1.2-1.5 0-1.9-1-1.9-3.8.1zm10.6-.2c-3.7 1.9-5.3 6.1-3.9 10.7.7 2.1 2.1 4.4 3.2 4.9 2.7 1.5 9.1.9 9.7-.9.4-1.1-.2-1.2-2.3-.7-3.1.8-7.5-1.5-7.5-3.9 0-1.1 1.3-1.5 5-1.5 4.5 0 5-.2 5-2.3 0-5.1-4.8-8.5-9.2-6.3zm5 2.8c2 2 1.4 2.8-2.3 2.8-1.9 0-3.5-.4-3.5-.8 0-1.2 2.2-3.2 3.5-3.2.6 0 1.6.5 2.3 1.2zm12.2-2.9c-1.5.8-2.6 2.3-2.8 3.9-.3 2.1.4 3 3.7 4.9 2.3 1.2 4.1 2.6 4.1 3 0 1.6-3 2.9-5.4 2.3-2-.5-2.6-.2-2.6 1s1 1.6 3.6 1.6c4.7 0 7.4-1.6 7.4-4.3 0-3-.9-4.1-4.8-6.1-4-2.1-3.7-4.1.6-4.1 1.9 0 3.2-.5 3.2-1.2s-.4-1.3-.9-1.3-1.5-.2-2.3-.5c-.7-.3-2.4.1-3.8.8zm17.3-.3c-4.8 2-6.1 10.4-2.2 14.6 2.7 2.9 10.9 3.6 10.9.9 0-1.1-.7-1.4-2.5-.9-2.9.7-7.5-1.8-7.5-4.1 0-1.1 1.3-1.5 5-1.5 4.8 0 5-.1 5-2.8 0-3.3-.8-4.5-3.7-6.1-2.5-1.3-2.1-1.2-5-.1zm4.7 2.4c0 .2.3 1.1.6 2 .5 1.3-.1 1.6-3 1.6-3.8 0-4.4-.8-2.4-2.8 1.1-1.1 4.8-1.7 4.8-.8zm-632 6.8c0 10.3-.7 12.4-3.9 11.5-1.4-.3-2.1 0-2.1.9 0 2.3 6.7 1.8 8-.5.5-1.1 1-6.3 1-11.5 0-7.9-.3-9.6-1.5-9.6s-1.5 1.7-1.5 9.2zm448-.7c0 6.9.3 8.5 1.5 8.5s1.5-1.6 1.5-8.5-.3-8.5-1.5-8.5-1.5 1.6-1.5 8.5zm29 0c0 6.9.3 8.5 1.5 8.5s1.5-1.6 1.5-8.5-.3-8.5-1.5-8.5-1.5 1.6-1.5 8.5zm234.8 3.2c-1 .2-1.8 1-1.8 1.7 0 .8 1.6 1.2 4.8 1.2 4.4-.1 4.7.1 5 2.6.3 2.2-.8 3.9-4.7 8.1-2.9 3.1-5.1 6.3-5.1 7.5 0 2 .5 2.2 6.5 2.2 5.1 0 6.5-.3 6.5-1.5 0-1.1-1.2-1.5-4.5-1.5-2.5 0-4.5-.3-4.5-.6 0-.4 2-2.9 4.5-5.5s4.6-5.6 4.6-6.6c.5-6.6-4-9.5-11.3-7.6zm30.8 1.6c-4.2 4.2-4.2 15.1 0 19.8 2.3 2.5 7.6 2.5 9.9-.1 2-2.2 3.2-11.1 2.1-15.5-1.6-6.2-7.8-8.4-12-4.2zm8.4 3.3c1.3 3.3 1.3 9.5 0 12.9-2.6 6.9-8 2.7-8-6.2 0-6.7 1.3-9.3 4.6-9.3 1.7 0 2.7.8 3.4 2.6zm22-3.1c-3.4 3.6-4 13.6-1.1 18.2 3.4 5.4 10.9 4.3 13-1.8 4.2-12.2-4.5-24.2-11.9-16.4zm8 2c1.4 1.6 1.8 9.7.7 13.7-.9 3.4-4.3 4.6-6.6 2.4-2.1-2.1-2.3-13.5-.2-15.9 1.7-2.1 4.5-2.2 6.1-.2zM37 463.3v12.3l5.5.2c7.3.2 9.5-1.8 9.5-8.6 0-5.5-.6-6.7-4.1-8.1-1.9-.7-3.4-.6-5.3.4l-2.6 1.4v-5c0-3.7-.4-4.9-1.5-4.9-1.3 0-1.5 2-1.5 12.3zm10.4-.7c2.3 2.2 2 7.7-.4 9.9-1.7 1.5-2.4 1.6-4.5.7-3.4-1.6-3.6-8.3-.3-10.6 2.8-2 3.3-2 5.2 0zm43.6.9c0 10.4.2 12.5 1.5 12.5 1.1 0 1.5-1.1 1.5-4.2v-4.2l4.4 4.3c2.5 2.4 5.1 4.1 6.1 3.9 1.3-.2 1-1.1-1.9-4.5-2-2.2-3.6-4.5-3.6-4.9 0-.4 1.4-2.3 3.2-4.1 2.9-3 3-3.3 1.1-3.3-1.2 0-3.5 1.6-5.2 3.5-1.7 1.9-3.3 3.5-3.6 3.5-.3 0-.5-3.4-.5-7.5 0-6-.3-7.5-1.5-7.5-1.3 0-1.5 2.1-1.5 12.5zm85-8c0 4.2-.1 4.4-2.2 3.6-3.2-1.2-7.3.5-8.7 3.5-1.6 3.5-1.4 8.6.5 11.2 1.7 2.5 7.1 3.1 9.2 1 .9-.9 1.2-.9 1.2 0 0 .7.7 1.2 1.5 1.2 1.3 0 1.5-2.1 1.5-12.5s-.2-12.5-1.5-12.5c-1.1 0-1.5 1.2-1.5 4.5zm-1.2 6.7c.7.7 1.2 2.8 1.2 4.8 0 4.2-1.4 6-4.7 6-4 0-5.3-6.7-2.1-10.8 1.3-1.5 4-1.6 5.6 0zm146.2 1v12.3l5.4.2c6.4.3 8.5-1.4 9.3-7.6 1-7-3.7-11.4-9.1-8.5l-2.6 1.3v-5c0-3.7-.4-4.9-1.5-4.9-1.3 0-1.5 2-1.5 12.2zm10.1-.6c1.7 2.1 1.5 8.3-.5 10.2-1.2 1.3-2 1.3-4.1.4-2.1-1-2.5-1.8-2.5-5.5 0-3.6.4-4.6 2.3-5.5 3-1.5 3.3-1.4 4.8.4zm18.9.9c0 10.4.2 12.5 1.5 12.5s1.5-2.1 1.5-12.5-.2-12.5-1.5-12.5-1.5 2.1-1.5 12.5zm134 0c0 10.4.2 12.5 1.5 12.5s1.5-2.1 1.5-12.5-.2-12.5-1.5-12.5-1.5 2.1-1.5 12.5zm195-8c0 4.2-.1 4.4-2.2 3.6-3.2-1.2-7.3.5-8.7 3.5-1.6 3.5-1.4 8.6.5 11.2 1.7 2.5 7.1 3.1 9.2 1 .9-.9 1.2-.9 1.2 0 0 .7.7 1.2 1.5 1.2 1.3 0 1.5-2.1 1.5-12.5s-.2-12.5-1.5-12.5c-1.1 0-1.5 1.2-1.5 4.5zm-1.2 6.7c.7.7 1.2 2.8 1.2 4.8 0 4.2-1.4 6-4.7 6-4 0-5.3-6.7-2.1-10.8 1.3-1.5 4-1.6 5.6 0zm21.2-6.7c0 4.2-.1 4.4-2.2 3.6-3.2-1.2-7.3.5-8.7 3.5-1.6 3.5-1.4 8.6.5 11.2 1.7 2.5 7.1 3.1 9.2 1 .9-.9 1.2-.9 1.2 0 0 .7.7 1.2 1.5 1.2 1.3 0 1.5-2.1 1.5-12.5s-.2-12.5-1.5-12.5c-1.1 0-1.5 1.2-1.5 4.5zm-1.2 6.7c.7.7 1.2 2.8 1.2 4.8 0 4.2-1.4 6-4.7 6-4 0-5.3-6.7-2.1-10.8 1.3-1.5 4-1.6 5.6 0zm11.2 1.3c0 10.4.2 12.5 1.5 12.5s1.5-2.1 1.5-12.5-.2-12.5-1.5-12.5-1.5 2.1-1.5 12.5zm85-8c0 4.2-.1 4.4-2.2 3.6-3.2-1.2-7.3.5-8.7 3.5-1.6 3.5-1.4 8.6.5 11.2 1.7 2.5 7.1 3.1 9.2 1 .9-.9 1.2-.9 1.2 0 0 .7.7 1.2 1.5 1.2 1.3 0 1.5-2.1 1.5-12.5s-.2-12.5-1.5-12.5c-1.1 0-1.5 1.2-1.5 4.5zm-1.2 6.7c.7.7 1.2 2.8 1.2 4.8 0 4.2-1.4 6-4.7 6-4 0-5.3-6.7-2.1-10.8 1.3-1.5 4-1.6 5.6 0zm21.2 1.3c0 10.4.2 12.5 1.5 12.5s1.5-2.1 1.5-12.5-.2-12.5-1.5-12.5-1.5 2.1-1.5 12.5zm76-7.9c0 4.3-.1 4.5-2.2 3.8-5.2-1.7-8.2-.1-9.7 5.2-2.2 8.1 3.3 13.9 10 10.4 1.3-.7 1.9-.7 1.9 0 0 .5.7 1 1.5 1 1.3 0 1.5-2.1 1.5-12.5s-.2-12.5-1.5-12.5c-1.1 0-1.5 1.2-1.5 4.6zm-1.9 6.4c1.4.8 1.9 2.1 1.9 5.1 0 3.3-.4 4.1-2.6 5.1-3.4 1.6-5.8 0-6.2-4-.6-5.9 2.4-8.6 6.9-6.2zM311 454.5c0 .8.7 1.5 1.5 1.5s1.5-.7 1.5-1.5-.7-1.5-1.5-1.5-1.5.7-1.5 1.5zm30 0c0 .8.7 1.5 1.5 1.5s1.5-.7 1.5-1.5-.7-1.5-1.5-1.5-1.5.7-1.5 1.5zm18 0c0 .8.7 1.5 1.5 1.5s1.5-.7 1.5-1.5-.7-1.5-1.5-1.5-1.5.7-1.5 1.5zm300 0c0 .8.7 1.5 1.5 1.5s1.5-.7 1.5-1.5-.7-1.5-1.5-1.5-1.5.7-1.5 1.5zm240 0c0 .8.7 1.5 1.5 1.5s1.5-.7 1.5-1.5-.7-1.5-1.5-1.5-1.5.7-1.5 1.5zm29 0c0 .8.7 1.5 1.5 1.5s1.5-.7 1.5-1.5-.7-1.5-1.5-1.5-1.5.7-1.5 1.5zm301 1.5c0 1.3.7 2 2 2s2-.7 2-2-.7-2-2-2-2 .7-2 2zm31 0c0 1.3.7 2 2 2s2-.7 2-2-.7-2-2-2-2 .7-2 2zm-401.7-.3c-.7.3-1.3 1.1-1.3 1.8s-.6 1.6-1.2 1.9c-1 .5-1 .7 0 1.2.8.4 1.2 2.8 1.2 6.8 0 6.7 1 8.6 4.7 8.6 2.8 0 3-1.1.3-2.8-1.6-1-2-2.3-2-6.7 0-5.2.1-5.5 2.5-5.5 1.4 0 2.5-.5 2.5-1 0-.6-1.1-1-2.4-1-1.6 0-2.6-.6-2.8-1.8-.2-1.1-.9-1.7-1.5-1.5zm119 0c-.7.3-1.3 1.1-1.3 1.8s-.6 1.6-1.2 1.9c-1 .5-1 .7 0 1.2.8.4 1.2 2.8 1.2 6.8 0 6.7 1 8.6 4.7 8.6 2.8 0 3-1.1.3-2.8-1.6-1-2-2.3-2-6.7 0-5.2.1-5.5 2.5-5.5 1.4 0 2.5-.5 2.5-1 0-.6-1.1-1-2.4-1-1.6 0-2.6-.6-2.8-1.8-.2-1.1-.9-1.7-1.5-1.5zM299 457.4c0 .8-.6 1.7-1.2 1.9-1 .4-1 .8-.2 1.4.6.4 1.3 3.6 1.6 7.1.5 6.7 1.5 8.2 5.6 8.2 2.7 0 2.9-1.6.2-2.3-1.7-.4-2-1.4-2-6.6 0-5.4.2-6.1 2-6.1 1.1 0 2-.5 2-1 0-.6-.9-1-2-1s-2-.7-2-1.5-.9-1.5-2-1.5-2 .6-2 1.4zm69.2.7c-1 1.5-1.1 2.4-.3 3.2.6.6 1.1 3.6 1.1 6.7 0 6.1 1.1 8 4.7 8 2.8 0 3-1.6.3-2.3-1.7-.4-2-1.4-2-6.6 0-5.4.2-6.1 2-6.1 1.1 0 2-.5 2-1 0-.6-.9-1-2-1s-2-.7-2-1.5c0-2.2-2.3-1.8-3.8.6zm568.8-.7c0 .8-.6 1.7-1.2 1.9-1 .4-1 .8-.2 1.4.6.4 1.3 3.6 1.6 7.1.5 6.7 1.5 8.2 5.6 8.2 2.7 0 2.9-1.6.2-2.3-1.7-.4-2-1.4-2-6.6 0-5.4.2-6.1 2-6.1 1.1 0 2-.5 2-1 0-.6-.9-1-2-1s-2-.7-2-1.5-.9-1.5-2-1.5-2 .6-2 1.4zm-876.9 1.5c-1.4.4-2.6 1.2-2.9 1.9-.3 1 .5 1.2 3.1.7 2.9-.6 3.7-.3 4.6 1.3 1.2 2.3.6 3.2-2.3 3.2-5.1 0-8.5 5.7-5.4 8.8 1.5 1.5 6.5 1.6 7.4.1.4-.8.9-.8 1.7 0 1.3 1.3 4.7 1.5 4.7.2 0-.6-.4-1.3-1-1.6-.5-.3-1-3-1-5.9 0-7.4-3-10.3-8.9-8.7zm5.7 11.3c-.3 2.5-4.3 3.7-6.1 1.9-1.5-1.5 1-4.1 4-4.1 2 0 2.4.4 2.1 2.2zm13.4-11.5c-5.3 1-7.3 10.4-3.1 14.9 1.9 2 3.1 2.4 6.3 2.2 5.2-.4 6.2-2.8 1-2.6-2.5.1-4.1-.4-5-1.7-3.1-4.3-.3-10.5 4.7-10.5 1.6 0 2.9-.5 2.9-1 0-.6-.4-1-.9-1s-1.5-.2-2.3-.4c-.7-.2-2.3-.1-3.6.1zm58.6 0c-1.6.2-2.8 1.1-2.8 1.8 0 1.1.8 1.3 3.1.8 2.1-.4 3.4-.1 4 .8 1.6 2.5 1 3.9-1.9 3.9-5.6 0-9.3 5.5-6 8.8 1.6 1.6 6 1.5 7.7-.1 1.1-1 1.4-1 1.8 0 .3.7 1.3 1.3 2.4 1.3 2 0 2.6-1.5.9-2.5-.5-.3-1-3.3-1-6.5 0-4.9-.4-6.1-2.2-7.4-1.2-.9-2.5-1.5-2.8-1.5-.3.1-1.7.4-3.2.6zm5 11.5c-.3 2.6-4.6 3.8-5.9 1.7-1.1-1.9.9-3.9 3.8-3.9 2 0 2.4.4 2.1 2.2zm14.9-10.7c-1.5.8-2.7 1-2.7.4 0-.5-.7-.9-1.5-.9-1.2 0-1.5 1.6-1.5 8.5s.3 8.5 1.5 8.5 1.5-1.3 1.5-5.5c0-5.7 2.2-9.5 5.5-9.5.8 0 1.5-.4 1.5-.9 0-1.8-1.6-2-4.3-.6zm42.8-.8c-5 1.2-7.3 6.3-5.5 11.9 1.4 4 3.5 5.4 8.4 5.4 2.6 0 3.6-.4 3.6-1.6 0-1.2-.6-1.5-2.5-1-1.7.4-3.1 0-4.5-1.4-4.2-4.2-1.1-11.8 4.5-10.8 1.7.4 2.5.1 2.5-.8 0-.8-.4-1.4-.9-1.4s-1.5-.2-2.3-.4c-.7-.2-2.2-.1-3.3.1zm14.7.8c-3.3 1.5-4.2 3.2-4.2 8.4 0 4.9 3.2 8.1 8.2 8.1 6.8 0 10.3-8.6 5.8-14.2-2.4-3.1-5.9-3.9-9.8-2.3zm7.5 4.5c1.7 3.6.5 7.9-2.4 9.3-2.2 1-2.8.8-4.4-1.2-1.1-1.3-1.9-3.6-1.9-5.1 0-5.8 6.3-8 8.7-3zm14.9-4.4c-1.4.7-2.6.9-2.6.3 0-.5-.7-.9-1.5-.9-1.2 0-1.5 1.6-1.5 8.5s.3 8.5 1.5 8.5 1.5-1.3 1.5-5.8c0-4.6.4-6.3 2-7.7 3.5-3.2 5-1.3 5 6.5 0 5.6.3 7 1.5 7s1.5-1.3 1.5-5.5.5-6 2-7.5c1.1-1.1 2.4-2 3-2 1.8 0 3 3.8 3 9.4 0 4.3.3 5.6 1.5 5.6s1.5-1.5 1.5-7.5c0-6.8-.2-7.6-2.5-9.1-2.2-1.4-2.7-1.4-5.5-.1-1.6.9-3.2 1.2-3.5.7-.9-1.5-4.4-1.8-6.9-.4zm30 0c-1.4.7-2.6.9-2.6.3 0-.5-.7-.9-1.5-.9-1.2 0-1.5 1.9-1.5 11.5s.3 11.5 1.5 11.5c1 0 1.5-1 1.5-3.4 0-3.4.1-3.4 3.8-2.9 4.6.6 7.1-1.8 7.9-7.6 1-7-3.7-11.4-9.1-8.5zm4.5 3c1.7 2.1 1.5 8.3-.5 10.2-1.2 1.3-2 1.3-4.1.4-2.1-1-2.5-1.8-2.5-5.5 0-3.6.4-4.6 2.3-5.5 3-1.5 3.3-1.4 4.8.4zm12.7-3.8c-4.3.5-3.5 2.9 1 2.8 3.1-.1 3.7.2 4 2.1.3 2-.1 2.3-2.7 2.3-3 0-7.1 2.9-7.1 5.1 0 4.2 4.7 6.2 9.1 3.9 1.3-.7 1.9-.7 1.9 0 0 .5 1.1 1 2.5 1 2.9 0 3.1-.6 1-2.6-.9-1-1.5-3.5-1.5-6.7 0-2.9-.4-5.7-.8-6.3-.9-1.4-3.9-2-7.4-1.6zm5 11.4c-.4 3.1-5.8 4-5.8 1 0-2.5.8-3.2 3.7-3.2 2 0 2.4.5 2.1 2.2zm169-10.8c-1.6.8-2.8 1.1-2.8.5 0-.5-.7-.9-1.5-.9-1.2 0-1.5 1.6-1.5 8.5s.3 8.5 1.5 8.5 1.5-1.3 1.5-6c0-5.7.2-6.2 3-7.8 1.6-.9 3-2.3 3-3 0-1.5.1-1.5-3.2.2zm11.5-.6c-5.2.8-7.1 9.6-3.2 14.6 1.8 2.3 2.7 2.7 6.7 2.4 2.6-.2 4.7-.8 5-1.6.3-1-.4-1.2-3.1-.7-2.8.6-3.9.3-5.6-1.4-3.3-3.3-2.5-4.1 3.4-4.1 6 0 6.2-.3 4.1-5.4-1.4-3.4-3.4-4.4-7.3-3.8zm4.5 4.4c.3 1.5-.4 1.8-3.3 1.8-3.3 0-3.5-.2-2.5-2.1 1.4-2.4 5.3-2.2 5.8.3zm22.1-4c-5.2 1.7-6.6 10.2-2.4 14.4 2 2 3.3 2.5 6.7 2.2 2.3-.2 4.3-.9 4.6-1.6.3-1-.4-1.2-2.9-.7-3.8.6-5.1 0-6.8-3.3-1.1-2.2-1.1-2.2 4.4-2.2 5.1 0 5.5-.2 5.5-2.3 0-2.8-2.4-6.3-4.7-6.9-1-.3-3-.1-4.4.4zm5.1 3.8c1 1.8.8 2-2.5 2-2.2 0-3.5-.5-3.5-1.3 0-3.3 4.4-3.7 6-.7zm11.8-4.3c-4.3.7-3.5 3 1 2.9 3-.1 3.8.3 4 1.9.2 1.7-.5 2.3-4 3-4 .9-4.3 1.2-4.3 4.4 0 4.4 2.3 6 6.5 4.4 1.7-.6 3.2-.7 3.6-.2.7 1.2 4.4 1.2 4.4 0 0-.5-.5-1.1-1.2-1.3-.7-.3-1.4-3.2-1.6-7.2-.4-6-.7-6.8-2.9-7.7-1.3-.5-2.5-.8-2.6-.8-.1.1-1.4.4-2.9.6zm5 11.5c-.4 3.1-5.8 4-5.8.9 0-2 1.2-2.9 4.3-3 1.4-.1 1.8.5 1.5 2.1zm12.6-11.2c-4.6 1.8-3.7 6.8 1.6 9.5 1.7.9 3 2.2 3 3 0 1.9-3.5 2.8-6.1 1.5-1.8-1-2-.9-1.7.7.2 1.3 1.4 1.9 4.5 2.1 3.5.3 4.4-.1 5.8-2.1 2-3.1 1.2-5.1-3.1-7.6-4.3-2.6-4.5-5.1-.4-5.1 1.7 0 3-.5 3-1 0-.6-.4-1-.9-1s-1.5-.2-2.3-.4c-.7-.3-2.2-.1-3.4.4zm17.9-.2c-5.2.8-7.1 9.6-3.2 14.6 1.8 2.3 2.7 2.7 6.7 2.4 2.6-.2 4.7-.8 5-1.6.3-1-.4-1.2-3.1-.7-2.8.6-3.9.3-5.6-1.4-3.3-3.3-2.5-4.1 3.4-4.1 6 0 6.2-.3 4.1-5.4-1.4-3.4-3.4-4.4-7.3-3.8zm4.5 4.4c.3 1.5-.4 1.8-3.3 1.8-3.3 0-3.5-.2-2.5-2.1 1.4-2.4 5.3-2.2 5.8.3zm81-3.8c-1.6.8-2.8 1.1-2.8.5 0-.5-.7-.9-1.5-.9-1.2 0-1.5 1.6-1.5 8.5s.3 8.5 1.5 8.5 1.5-1.3 1.5-6c0-5.2.3-6.2 2.5-7.6 1.3-.8 2.9-1.3 3.5-.9.5.3 1 3.7 1 7.6 0 6.2.2 6.9 2 6.9s2-.7 2-5.8c0-4.6.4-6.3 2-7.7 3.3-3 5-.5 5 7.1 0 5 .3 6.4 1.5 6.4s1.5-1.5 1.5-7.3c0-3.9-.4-7.7-.8-8.3-1.4-2.1-4.5-2.5-6.9-.9-2.1 1.4-2.6 1.4-4.5 0-2.7-1.8-2.6-1.8-6-.1zm86.5-.4c-4.8 2-6.1 10.4-2.2 14.6 2.7 2.9 10.9 3.6 10.9.9 0-1.1-.7-1.4-2.5-.9-2.9.7-7.5-1.8-7.5-4.1 0-1.1 1.3-1.5 5-1.5 4.8 0 5-.1 5-2.8 0-3.3-.8-4.5-3.7-6.1-2.5-1.3-2.1-1.2-5-.1zm4.7 2.4c0 .2.3 1.1.6 2 .5 1.3-.1 1.6-3 1.6-3.8 0-4.4-.8-2.4-2.8 1.1-1.1 4.8-1.7 4.8-.8zm22.8-2.7c-1.6.2-2.8 1.1-2.8 1.8 0 1.1.8 1.3 3.1.8 2.1-.4 3.4-.1 4 .8 1.6 2.5 1 3.9-1.9 3.9-5.6 0-9.3 5.5-6 8.8 1.6 1.6 6 1.5 7.7-.1 1.1-1 1.4-1 1.8 0 .3.7 1.3 1.3 2.4 1.3 2 0 2.6-1.5.9-2.5-.5-.3-1-3.3-1-6.5 0-4.9-.4-6.1-2.2-7.4-1.2-.9-2.5-1.5-2.8-1.5-.3.1-1.7.4-3.2.6zm5 11.5c-.3 2.6-4.6 3.8-5.9 1.7-1.1-1.9.9-3.9 3.8-3.9 2 0 2.4.4 2.1 2.2zm15.4-10.6c-1.8.7-3.2.9-3.2.4 0-.6-.7-1-1.5-1-1.2 0-1.5 1.6-1.5 8.5s.3 8.5 1.5 8.5c1.1 0 1.5-1.3 1.5-5.3 0-4.4.4-5.8 2.4-7.7 4.1-3.8 5.6-2.2 5.6 6 0 5.6.3 7 1.5 7s1.5-1.5 1.5-7.3c0-9.8-1.7-11.7-7.8-9.1zm56.6-.8c-4.3.5-3.5 2.9 1 2.8 3.1-.1 3.7.2 4 2.1.3 2-.1 2.3-2.7 2.3-3 0-7.1 2.9-7.1 5.1 0 4.2 4.7 6.2 9.1 3.9 1.3-.7 1.9-.7 1.9 0 0 .5 1.1 1 2.5 1 2.9 0 3.1-.6 1-2.6-.9-1-1.5-3.5-1.5-6.7 0-2.9-.4-5.7-.8-6.3-.9-1.4-3.9-2-7.4-1.6zm5 11.4c-.4 3.1-5.8 4-5.8 1 0-2.5.8-3.2 3.7-3.2 2 0 2.4.5 2.1 2.2zm12.2-10.9c-1.5.8-2.6 2.3-2.8 3.9-.3 2.1.4 3 3.7 4.9 2.3 1.2 4.1 2.6 4.1 3 0 1.6-3 2.9-5.4 2.3-2-.5-2.6-.2-2.6 1s1 1.6 3.6 1.6c4.7 0 7.4-1.6 7.4-4.3 0-3-.9-4.1-4.8-6.1-4-2.1-3.7-4.1.6-4.1 1.9 0 3.2-.5 3.2-1.2s-.4-1.3-.9-1.3-1.5-.2-2.3-.5c-.7-.3-2.4.1-3.8.8zm68.9-.1c-4.6 1.6-6.4 9.2-3.3 13.6 1.7 2.5 7.1 3.1 9.2 1 .9-.9 1.2-.7 1.2.9 0 3.3-2.8 5.5-6.6 5.1-1.8-.2-3.3.1-3.4.7 0 .5 2.2 1.1 4.9 1.3 7 .4 8.1-1.5 8.1-13.5v-9.2l-2.9.1c-1.5.1-3.2-.1-3.7-.4-.5-.3-2.1-.1-3.5.4zm5.9 3c.7.7 1.2 2.7 1.2 4.5 0 2.4-.7 3.7-2.6 5-2.6 1.6-2.7 1.6-4.6-.7-4-5 1.6-13.2 6-8.8zm34.2-2.9c-1.5.8-2.6 2.3-2.8 3.9-.3 2.1.4 3 3.7 4.9 2.3 1.2 4.1 2.6 4.1 3 0 1.6-3 2.9-5.4 2.3-2-.5-2.6-.2-2.6 1s1 1.6 3.6 1.6c4.7 0 7.4-1.6 7.4-4.3 0-3-.9-4.1-4.8-6.1-4-2.1-3.7-4.1.6-4.1 1.9 0 3.2-.5 3.2-1.2s-.4-1.3-.9-1.3-1.5-.2-2.3-.5c-.7-.3-2.4.1-3.8.8zm40.2-.5c-5.3.8-7.4 11-3.2 15.2 2.1 2.1 6.9 2.6 10 1 2.4-1.3 4.1-6.4 3.4-10-1-4.6-4.9-7-10.2-6.2zm5.6 3.4c1.7 1.7 1.5 8.4-.4 10.2-4.6 4.7-9.8-3.1-6.4-9.5 1.2-2.1 5-2.5 6.8-.7zm41.5-3.2c-4.8 2-6.1 10.4-2.2 14.6 2.7 2.9 10.9 3.6 10.9.9 0-1.1-.7-1.4-2.5-.9-2.9.7-7.5-1.8-7.5-4.1 0-1.1 1.3-1.5 5-1.5 4.8 0 5-.1 5-2.8 0-3.3-.8-4.5-3.7-6.1-2.5-1.3-2.1-1.2-5-.1zm4.7 2.4c0 .2.3 1.1.6 2 .5 1.3-.1 1.6-3 1.6-3.8 0-4.4-.8-2.4-2.8 1.1-1.1 4.8-1.7 4.8-.8zm15.2-1.8c-1.2.8-2.2 1-2.2.5 0-.6-.7-1.1-1.5-1.1-1.2 0-1.5 1.6-1.5 8.5s.3 8.5 1.5 8.5 1.5-1.3 1.5-5.8c0-5.9 1.8-9.2 4.8-9.2.7 0 1.2-.7 1.2-1.5 0-1.9-1-1.9-3.8.1zm12-.8c-5.3.8-7.4 11-3.2 15.2 2.1 2.1 6.9 2.6 10 1 2.4-1.3 4.1-6.4 3.4-10-1-4.6-4.9-7-10.2-6.2zm5.6 3.4c1.7 1.7 1.5 8.4-.4 10.2-4.6 4.7-9.8-3.1-6.4-9.5 1.2-2.1 5-2.5 6.8-.7zm-969.4-2c.3.7 1.4 4.6 2.6 8.6 2.5 8.6 4.5 9.3 6.7 2.2.8-2.5 1.7-5.2 2-6 .3-.8 1.3 1.2 2.2 4.5 2.5 8.7 4.3 8.4 7.5-1.2 3-9 3-9.3 1.4-9.3-.7 0-2.2 2.8-3.2 6.3l-1.9 6.2-1.4-5c-2.2-7.7-2.2-7.7-4-7.3-1.2.2-2.3 2.1-3.3 5.6-.8 2.8-1.8 5.2-2.1 5.2-.3 0-1.2-2.4-2-5.2-.9-3.5-2-5.4-3.2-5.6-1-.2-1.5.1-1.3 1zm203.6 7.3c0 6.9.3 8.5 1.5 8.5s1.5-1.6 1.5-8.5-.3-8.5-1.5-8.5-1.5 1.6-1.5 8.5zm30 0c0 6.9.3 8.5 1.5 8.5s1.5-1.6 1.5-8.5-.3-8.5-1.5-8.5-1.5 1.6-1.5 8.5zm18 0c0 6.9.3 8.5 1.5 8.5s1.5-1.6 1.5-8.5-.3-8.5-1.5-8.5-1.5 1.6-1.5 8.5zm19-8.1c0 .3 1.4 4 3 8.2 2.6 6.5 2.9 8.2 2 10.7-1.3 3.8-1.3 3.7.4 3.7.8 0 2.6-2.9 4.1-6.8 6.9-17.2 6.7-16.4 4.9-16-.9.2-2.6 2.7-3.8 5.5-1.1 2.9-2.4 5.3-2.7 5.3-.4 0-1.5-2.4-2.5-5.2-1.2-3.2-2.6-5.4-3.7-5.6-.9-.2-1.7-.1-1.7.2zm281 8.1c0 6.9.3 8.5 1.5 8.5s1.5-1.6 1.5-8.5-.3-8.5-1.5-8.5-1.5 1.6-1.5 8.5zm240 0c0 6.9.3 8.5 1.5 8.5s1.5-1.6 1.5-8.5-.3-8.5-1.5-8.5-1.5 1.6-1.5 8.5zm29 0c0 6.9.3 8.5 1.5 8.5s1.5-1.6 1.5-8.5-.3-8.5-1.5-8.5-1.5 1.6-1.5 8.5zm89-7.5c0 .5 2 1 4.5 1s4.5.3 4.5.6-2.2 3.1-5 6.3c-2.7 3.2-5 6.3-5 6.9 0 .8 2.4 1.2 7.5 1.2 6 0 7.5-.3 7.5-1.5 0-1.1-1.2-1.5-5.1-1.5h-5.1l5.1-5.9c2.8-3.2 5.1-6.4 5.1-7 0-.7-2.5-1.1-7-1.1-4 0-7 .4-7 1z"/></svg>